<svg xmlns="http://www.w3.org/2000/svg" viewBox="0 0 500 500"><g id="freepik--background-complete--inject-12"><path d="M438.31,115.79a7,7,0,0,0,1.12-4,6.78,6.78,0,0,0-1.24-3.91,5.5,5.5,0,0,0-3.75-2.13,5.41,5.41,0,0,0-2.58.35,5.57,5.57,0,0,0-.08-2.37,5.51,5.51,0,0,0-2.67-3.39,6.65,6.65,0,0,0-4.05-.66,7,7,0,0,0-3.83,1.71,8.55,8.55,0,0,0-2.61,4.64,12.06,12.06,0,0,0,.61,5.64c1,3,2.35,6.87,2.35,6.87s3.75.26,6.86.79a12,12,0,0,0,5.66-.24A8.43,8.43,0,0,0,438.31,115.79Z" style="fill:#f5f5f5"></path><path d="M117.31,292.53A64.4,64.4,0,0,1,133,285.72l3.22-15.49,26.18-.46,3.77,15.37A64,64,0,0,1,182,291.39l13.23-8.67,18.83,18.18-8.2,13.53a64,64,0,0,1,6.8,15.66l15.5,3.22.46,26.18-15.37,3.77A64.32,64.32,0,0,1,207,379.14l8.67,13.23-18.18,18.84L184,403a64,64,0,0,1-15.66,6.8l-3.22,15.5-26.18.46-3.77-15.37a64.56,64.56,0,0,1-15.88-6.25L106,412.82,87.21,394.63l8.2-13.52a64.4,64.4,0,0,1-6.81-15.66l-15.49-3.23-.46-26.17L88,332.28a64.39,64.39,0,0,1,6.25-15.89L85.6,303.16l18.19-18.83,13.52,8.2Zm14,34.87a28.09,28.09,0,1,0,39.72-.7A28.09,28.09,0,0,0,131.27,327.4Z" style="fill:#e0e0e0"></path><path d="M355.62,157.75a45.23,45.23,0,0,1,11.1-4.82l2.28-11,18.57-.32,2.67,10.9A45,45,0,0,1,401.5,157l9.39-6.15,13.35,12.89-5.81,9.59a45.46,45.46,0,0,1,4.82,11.11l11,2.28.33,18.57-10.9,2.67a45.37,45.37,0,0,1-4.44,11.26l6.15,9.39-12.89,13.36-9.59-5.82a45.46,45.46,0,0,1-11.11,4.82l-2.28,11-18.57.33-2.67-10.9A45.37,45.37,0,0,1,357,236.9l-9.39,6.15-13.35-12.89,5.81-9.59a45.29,45.29,0,0,1-4.82-11.11l-11-2.28-.33-18.57,10.9-2.67a45.37,45.37,0,0,1,4.44-11.26l-6.15-9.39L346,151.94l9.6,5.81Zm9.89,24.73a19.92,19.92,0,1,0,28.17-.49A19.92,19.92,0,0,0,365.51,182.48Z" style="fill:#e0e0e0"></path><path d="M224.91,45.91A36.68,36.68,0,0,1,233.83,42l1.84-8.83,14.92-.26,2.14,8.76a36.72,36.72,0,0,1,9.06,3.56l7.54-4.94,10.73,10.36-4.67,7.71a36.72,36.72,0,0,1,3.87,8.93l8.83,1.83.27,14.92-8.76,2.15a36.3,36.3,0,0,1-3.57,9l5,7.54-10.37,10.74-7.71-4.68a36.3,36.3,0,0,1-8.92,3.88l-1.84,8.83-14.92.26-2.14-8.76a36.5,36.5,0,0,1-9.05-3.56l-7.55,4.94L207.75,104.1l4.67-7.71a36.65,36.65,0,0,1-3.87-8.92l-8.83-1.84-.27-14.92,8.76-2.15a36.45,36.45,0,0,1,3.57-9.05L206.83,52,217.2,41.24l7.71,4.67Zm8,19.88a16,16,0,1,0,22.63-.4A16,16,0,0,0,232.86,65.79Z" style="fill:#e0e0e0"></path><path d="M309,28.84a25.08,25.08,0,0,1,6.12-2.66l1.26-6.05L326.58,20l1.47,6a25.3,25.3,0,0,1,6.21,2.44L339.42,25l7.36,7.1-3.2,5.29a25.23,25.23,0,0,1,2.66,6.11l6.05,1.26L352.47,55l-6,1.47A24.76,24.76,0,0,1,344,62.68l3.39,5.17-7.1,7.36L335,72a24.85,24.85,0,0,1-6.11,2.66l-1.26,6-10.23.18-1.47-6a25,25,0,0,1-6.21-2.44l-5.17,3.38-7.36-7.1,3.21-5.29a24.85,24.85,0,0,1-2.66-6.11l-6.06-1.26-.18-10.23,6-1.47A25.3,25.3,0,0,1,300,38.16L296.58,33l7.11-7.36L309,28.84Zm5.46,13.62a11,11,0,1,0,15.51-.27A11,11,0,0,0,314.43,42.46Z" style="fill:#f5f5f5"></path><path d="M95.13,113.11a15.68,15.68,0,0,1,3.81-1.66l.79-3.77,6.37-.12.92,3.75a15.42,15.42,0,0,1,3.87,1.52l3.23-2.11,4.58,4.43-2,3.29a15.34,15.34,0,0,1,1.65,3.82l3.78.78.11,6.38-3.74.92a15.45,15.45,0,0,1-1.53,3.87l2.12,3.22L114.67,142l-3.3-2a15.82,15.82,0,0,1-3.81,1.65l-.79,3.78-6.38.11-.92-3.75a15.73,15.73,0,0,1-3.87-1.52l-3.22,2.11L87.79,138l2-3.29a15.75,15.75,0,0,1-1.66-3.82l-3.77-.78-.11-6.38,3.74-.92a16,16,0,0,1,1.52-3.87L87.4,115.7l4.43-4.59,3.3,2Zm3.4,8.49a6.84,6.84,0,1,0,9.67-.17A6.84,6.84,0,0,0,98.53,121.6Z" style="fill:#f5f5f5"></path><path d="M41.34,170.73a31.23,31.23,0,0,1,7.61-3.3l1.57-7.54,12.72-.22,1.83,7.47a31.32,31.32,0,0,1,7.73,3L79.23,166l9.15,8.85-4,6.57A31.39,31.39,0,0,1,87.7,189l7.54,1.57.22,12.72L88,205.12a31.4,31.4,0,0,1-3,7.72l4.21,6.43-8.84,9.16-6.57-4a31.43,31.43,0,0,1-7.61,3.31l-1.57,7.53-12.73.22L50,228a31.4,31.4,0,0,1-7.72-3l-6.43,4.22-9.16-8.84,4-6.58a31.43,31.43,0,0,1-3.31-7.61l-7.53-1.57-.22-12.72,7.47-1.83a31.32,31.32,0,0,1,3-7.73l-4.22-6.43,8.84-9.15,6.58,4Zm6.78,17a13.65,13.65,0,1,0,19.31-.34A13.65,13.65,0,0,0,48.12,187.69Z" style="fill:#f5f5f5"></path><path d="M426.81,307.89a25.67,25.67,0,0,1,6.24-2.71l1.29-6.18,10.43-.18,1.5,6.13a24.82,24.82,0,0,1,6.33,2.49l5.27-3.46,7.51,7.25-3.27,5.39a25,25,0,0,1,2.71,6.24l6.18,1.28.18,10.44-6.12,1.5a25.89,25.89,0,0,1-2.49,6.33l3.45,5.27-7.24,7.51-5.4-3.27a25.34,25.34,0,0,1-6.24,2.71l-1.28,6.18-10.43.18-1.51-6.13a25.89,25.89,0,0,1-6.33-2.49l-5.27,3.46-7.51-7.25,3.27-5.39a25.72,25.72,0,0,1-2.71-6.24l-6.17-1.28L409,325.23l6.13-1.5a25.73,25.73,0,0,1,2.49-6.33l-3.46-5.27,7.25-7.51,5.39,3.27Zm5.56,13.9a11.2,11.2,0,1,0,15.83-.28A11.2,11.2,0,0,0,432.37,321.79Z" style="fill:#f5f5f5"></path><path d="M231.28,398.54a36.19,36.19,0,0,1,8.79-3.83l1.81-8.7,14.7-.26,2.12,8.64a36.15,36.15,0,0,1,8.92,3.51l7.43-4.87,10.58,10.21-4.61,7.6a35.81,35.81,0,0,1,3.83,8.79l8.7,1.81.25,14.7-8.63,2.12a36.15,36.15,0,0,1-3.51,8.92l4.87,7.43-10.21,10.58-7.6-4.61a35.78,35.78,0,0,1-8.79,3.82l-1.81,8.71-14.7.25-2.12-8.63a36.15,36.15,0,0,1-8.92-3.51L225,466.09l-10.58-10.21,4.61-7.6a36.19,36.19,0,0,1-3.83-8.79l-8.7-1.81-.26-14.7,8.64-2.12a36.15,36.15,0,0,1,3.51-8.92l-4.87-7.43,10.21-10.58,7.6,4.61Zm7.84,19.58a15.77,15.77,0,1,0,22.3-.39A15.77,15.77,0,0,0,239.12,418.12Z" style="fill:#f5f5f5"></path><path d="M334,458.23a5.92,5.92,0,1,1,.19-8.38A5.93,5.93,0,0,1,334,458.23Z" style="fill:#e0e0e0"></path><path d="M334.83,456.25c-.36-.06.52-6.24,2.94-13.49s4.43-13,4.74-12.93-1.07,6.14-3.5,13.33S335.18,456.31,334.83,456.25Z" style="fill:#e0e0e0"></path><path d="M354.79,433.21c.15.31-3,1.53-6.8.6s-6.07-3.4-5.81-3.61,2.63,1.54,6.11,2.34S354.71,432.83,354.79,433.21Z" style="fill:#e0e0e0"></path><path d="M352.54,438.93c.18.3-2.86,1.65-6.55.47s-5.42-4-5.1-4.13,2.23,1.9,5.49,2.89S352.44,438.56,352.54,438.93Z" style="fill:#e0e0e0"></path><path d="M179.55,457.92l.86,3.44-13.77,3.43-.68-2.73,5.37-8.39a7.56,7.56,0,0,0,1-2.21,3.42,3.42,0,0,0,0-1.62,2.09,2.09,0,0,0-1.16-1.5,3.6,3.6,0,0,0-2.32,0,5.11,5.11,0,0,0-2,1,4.24,4.24,0,0,0-1.27,1.77L162,449.85a7.4,7.4,0,0,1,2.32-3.22,10.18,10.18,0,0,1,4.07-2,9.22,9.22,0,0,1,3.72-.22,5.68,5.68,0,0,1,2.83,1.28,5,5,0,0,1,1.56,2.64,6.5,6.5,0,0,1,.07,2.94,11,11,0,0,1-1.68,3.58l-3.2,5Z" style="fill:#f5f5f5"></path></g><g id="freepik--Symbol--inject-12"><path d="M100.84,366.35a8.61,8.61,0,1,1-7-10A8.61,8.61,0,0,1,100.84,366.35Z" style="fill:#9B5EFF"></path><path d="M94.18,404.9a8.61,8.61,0,1,1-7-9.95A8.61,8.61,0,0,1,94.18,404.9Z" style="fill:#9B5EFF"></path><rect x="60.8" y="377.89" width="56.6" height="10.17" transform="translate(66.49 -9.58) rotate(9.8)" style="fill:#9B5EFF"></rect></g><g id="freepik--puzzle-pieces--inject-12"><path d="M191.59,81.83c-2.07-.13-3.92,1.28-5,2.29a3.31,3.31,0,0,1-2.5.9c-1.85-.11-3.57-1.51-3.45-3.36l.86-20.27-19.19-.82a3.55,3.55,0,0,0-3,3.41,3.32,3.32,0,0,0,.89,2.51c1,1.06,2.4,2.92,2.25,5-.22,3.21-2.94,5.27-6.58,5s-6-2.66-5.83-5.87c.14-2.08,1.78-3.73,2.92-4.65a3.34,3.34,0,0,0-1.63-5.89l-19.89-.84-.7,21.22a3.36,3.36,0,0,1-5.93,1.94c-.92-1.14-2.59-2.76-4.66-2.89-3.21-.2-5.61,2.23-5.84,5.87s1.86,6.35,5.07,6.55c2.07.13,3.93-1.28,5-2.29a3.31,3.31,0,0,1,2.5-.9A3.35,3.35,0,0,1,130,92.31L128.61,115l50.53,2.15,1.1-23.87a3.35,3.35,0,0,1,3.55-3.14,3.31,3.31,0,0,1,2.37,1.2c.92,1.14,2.59,2.76,4.66,2.89,3.21.2,5.62-2.23,5.84-5.87S194.81,82,191.59,81.83Z" style="fill:#9B5EFF"></path><g style="opacity:0.30000000000000004"><path d="M146.46,115.78s5-8,11.2-9.35a52.45,52.45,0,0,0,8.71-2.73A34.13,34.13,0,0,0,177.56,96l2.68-2.74v17.58l-18,6.29Z"></path></g><path d="M53.07,217.27A3.34,3.34,0,0,1,50.24,215a3.25,3.25,0,0,1,.22-2.64c.7-1.29,1.57-3.44.91-5.41-1-3.05-4.18-4.36-7.64-3.19s-5.18,4.11-4.15,7.16c.66,2,2.67,3.16,4,3.75a3.32,3.32,0,0,1,1.78,2,3.8,3.8,0,0,1-.66,3.7L43,221,21.5,229l7,19.13c.6,1.75,2.74,2.38,4.5,1.78a3.36,3.36,0,0,0,2-1.8c.58-1.35,1.76-3.37,3.73-4.05,3-1.06,6,.65,7.23,4.11s-.09,6.64-3.14,7.7c-2,.68-4.15-.18-5.44-.88a3.33,3.33,0,0,0-2.66-.2,3.37,3.37,0,0,0-2.08,4.29l8.22,22.54L72.6,269.91l18.61-6.85,2.29-.84-7.45-21.6a3.37,3.37,0,0,0-6.26-.28c-.58,1.35-1.76,3.37-3.73,4-3,1.06-6-.65-7.23-4.11s.09-6.64,3.15-7.7c2-.68,4.14.18,5.43.88a3.29,3.29,0,0,0,2.66.19,3.36,3.36,0,0,0,2.08-4.28l-7.6-20Z" style="fill:#455a64"></path></g><g id="freepik--Pencil--inject-12"><path d="M423.55,420l-9.41-25.54-88.5-77.76L306.5,335.87l88.18,79.95,26.18,7.07A2.34,2.34,0,0,0,423.55,420Z" style="fill:#455a64"></path><path d="M414.14,394.49c-1.33.42-2.28,1.69-1.86,2.84-2-1-5-.39-7,1.43a6.85,6.85,0,0,0-2.12,6.89,8.6,8.6,0,0,0-6.73,3.24,7.67,7.67,0,0,0-1.56,7l26,7a2.3,2.3,0,0,0,2.64-2.81Z" style="fill:#ffbf9d"></path><path d="M412.76,420.88s-1.27-6.11,8-9.06L424.47,422a1.36,1.36,0,0,1-1.57,1.67Z" style="fill:#263238"></path><path d="M394.68,415.82l.23.06a6.06,6.06,0,0,1-.24-2.94,8.54,8.54,0,0,1,1.67-3.88,8.94,8.94,0,0,1,4.25-3.05,7.16,7.16,0,0,1,2.61-.36l-87.3-79.18-9.4,9.4Z" style="opacity:0.3"></path><path d="M414.14,394.49l-88.5-77.76-2.48,2.49,89.12,78.11a1.53,1.53,0,0,1-.1-.45A2.67,2.67,0,0,1,414.14,394.49Z" style="opacity:0.3"></path></g><g id="freepik--Numbers--inject-12"><path d="M73.49,328.7a5.37,5.37,0,0,1,1.58,2.75,5.74,5.74,0,0,1-.26,3.76,7.46,7.46,0,0,1-2.61,3.09,14.71,14.71,0,0,1-9.47,2.36A7.3,7.3,0,0,1,59,339.15,5.75,5.75,0,0,1,57,336a5.44,5.44,0,0,1,.1-3.18A6.42,6.42,0,0,1,59,330.1a5.28,5.28,0,0,1-2.29-1.39,5.18,5.18,0,0,1-1.29-2.4,5.35,5.35,0,0,1,.24-3.5A6.79,6.79,0,0,1,58,320a13.14,13.14,0,0,1,8.62-2.15,6.8,6.8,0,0,1,3.45,1.4,5.39,5.39,0,0,1,1.85,3,5.12,5.12,0,0,1,0,2.72,5.28,5.28,0,0,1-1.4,2.31A6.25,6.25,0,0,1,73.49,328.7Zm-12.68-5.6a2.49,2.49,0,0,0-.41,2.2,2.39,2.39,0,0,0,1.37,1.7,3.9,3.9,0,0,0,2.6.11,4.1,4.1,0,0,0,2.27-1.32,2.4,2.4,0,0,0,.44-2.16,2.45,2.45,0,0,0-1.42-1.74,4,4,0,0,0-2.62-.11A3.91,3.91,0,0,0,60.81,323.1Zm8.68,12a2.93,2.93,0,0,0-1.12-4.48,5.78,5.78,0,0,0-5.86,1.46,2.8,2.8,0,0,0-.51,2.51,2.77,2.77,0,0,0,1.64,2,5.72,5.72,0,0,0,5.85-1.48Z" style="fill:#263238"></path><path d="M86.51,92.49l.86,3.44L73.6,99.36l-.68-2.73,5.37-8.39a7.68,7.68,0,0,0,1-2.21,3.42,3.42,0,0,0,0-1.62,2.09,2.09,0,0,0-1.16-1.5,3.6,3.6,0,0,0-2.32,0,5.11,5.11,0,0,0-2.05,1,4.27,4.27,0,0,0-1.27,1.76L69,84.42a7.4,7.4,0,0,1,2.32-3.22,10.18,10.18,0,0,1,4.07-2A9.22,9.22,0,0,1,79.1,79a5.68,5.68,0,0,1,2.83,1.28,5,5,0,0,1,1.56,2.64,6.5,6.5,0,0,1,.07,2.94,11.2,11.2,0,0,1-1.68,3.58l-3.2,5Z" style="fill:#263238"></path></g><g id="freepik--musical-notes--inject-12"><path d="M417.66,158.28a5.92,5.92,0,1,1,2.13-8.1A5.93,5.93,0,0,1,417.66,158.28Z" style="fill:#263238"></path><path d="M418.93,156.55c-.34-.14,2-6,6-12.44s7.33-11.62,7.62-11.47-2.47,5.72-6.5,12.15S419.26,156.69,418.93,156.55Z" style="fill:#263238"></path><path d="M443.71,138.78c.07.33-3.24.8-6.76-1s-5.12-4.71-4.81-4.86,2.2,2.11,5.4,3.69S443.71,138.39,443.71,138.78Z" style="fill:#263238"></path><path d="M440.18,143.82c.11.33-3.16.94-6.47-1.07s-4.35-5.14-4-5.2,1.73,2.37,4.68,4.08S440.18,143.44,440.18,143.82Z" style="fill:#263238"></path><path d="M416.55,357.35a6.91,6.91,0,1,1-6.18-7.57A6.92,6.92,0,0,1,416.55,357.35Z" style="fill:#263238"></path><path d="M415.78,355c-.57.35-4.66-5.74-8-14S402,326,402.58,325.74s4.1,6.09,7.4,14.29S416.34,354.62,415.78,355Z" style="fill:#263238"></path><path d="M424.53,321.39c.41.37-3.39,4.72-10.09,6.68a16.22,16.22,0,0,1-8.79.28c-2.25-.63-3.26-1.81-3.08-2s1.39.23,3.4.37a22,22,0,0,0,7.81-.93C419.81,324,424.07,320.79,424.53,321.39Z" style="fill:#263238"></path><path d="M438.49,353a6.91,6.91,0,1,1-6.18-7.57A6.9,6.9,0,0,1,438.49,353Z" style="fill:#263238"></path><path d="M437.72,350.61c-.56.35-4.65-5.74-8-14s-5.75-14.93-5.19-15.21,4.1,6.09,7.4,14.29S438.29,350.27,437.72,350.61Z" style="fill:#263238"></path><path d="M426.5,325.67c.51.37-2.84,4.75-9.07,6.81s-11.52.64-11.34,0,5-.39,10.58-2.31S426,325.16,426.5,325.67Z" style="fill:#263238"></path></g><g id="freepik--Heart--inject-12"><path d="M396.54,87.1a13.18,13.18,0,0,0-4.35-6.6,12.58,12.58,0,0,0-7.09-3.08,10.22,10.22,0,0,0-10.38,6.77,10.19,10.19,0,0,0-11.57-3.25,12.59,12.59,0,0,0-5.95,4.94,13.13,13.13,0,0,0-2.34,7.55,16,16,0,0,0,3.35,9.46A22.66,22.66,0,0,0,367,109c5.47,2.32,12.66,5.18,12.66,5.18s5-5,9.63-8.75A22.61,22.61,0,0,0,396,97.13,16,16,0,0,0,396.54,87.1Z" style="fill:#9B5EFF"></path></g><g id="freepik--light-bulb--inject-12"><path d="M476.14,238.78c9-18.36,1.42-40.06-16.92-48.46s-40.49-.34-49.48,18a35.9,35.9,0,0,0,4.32,38.81L410,255.55,439,268.89s2.49-4.63,4.61-8.8A38.23,38.23,0,0,0,476.14,238.78Z" style="fill:#9B5EFF"></path><path d="M421.32,260.45c5.11-10.87,10.95-21.4,15.87-32.36,1-2.21,1.95-4.44,2.75-6.72,1-2.87,1.86-6.18.07-8.85a4.6,4.6,0,0,0-3.48-2.14,6,6,0,0,0-3.89,1.39,15.31,15.31,0,0,0-5,7.47,15.93,15.93,0,0,0,3.66,16.25,16.61,16.61,0,0,0,16.66,4c5.76-1.9,11-7.36,11.65-13.46.27-2.64-.46-6.06-3.28-7s-5.27,1.11-6.94,3.12a55.8,55.8,0,0,0-4.93,7.69c-1.77,3-3.45,6.12-5.09,9.22-3.39,6.38-6.63,12.83-10,19.21-.75,1.41-1.5,2.82-2.27,4.22-.26.47.5.78.76.31C434,251.62,439.41,240,446,229a37.33,37.33,0,0,1,4.84-7.11,6.59,6.59,0,0,1,3.6-2.17,3.59,3.59,0,0,1,3.6,1.75c1.58,2.6.8,6.06-.46,8.69a17.08,17.08,0,0,1-5.93,6.72,15.68,15.68,0,0,1-16.79.31,14.79,14.79,0,0,1-7.05-14.47,16.34,16.34,0,0,1,3.08-7.88c1.72-2.29,5-5.1,7.74-2.67s1.58,6.14.56,9c-.72,2-1.55,4-2.42,5.94-4.5,10.16-9.82,20-14.7,30-.49,1-1,2-1.46,3-.23.49.53.81.76.32Z" style="fill:#fff"></path><g id="freepik--2ggvdetif--inject-12"><path d="M410.67,273.67a9.61,9.61,0,0,1,1.07,2.56,2.08,2.08,0,0,0,1.19,1.44l5.86,2.68a2.21,2.21,0,0,0,2.06-.11,4.17,4.17,0,0,1,2.77-.65Z" style="fill:#455a64"></path></g><path d="M412.31,254.43c-.05.12-3.18,9.91-4.37,13.65a4.64,4.64,0,0,0,.8,4.43,4.35,4.35,0,0,0,1.49,1.13L423,279.5s3.35,1.53,5.41-.78S437.51,266,437.51,266Z" style="fill:#263238"></path><path d="M430.86,277.69l-23.3-10.56a.68.68,0,0,1-.33-.92l0-.07a.72.72,0,0,1,.95-.35l23.3,10.56a.68.68,0,0,1,.33.92l0,.07A.72.72,0,0,1,430.86,277.69Z" style="fill:#455a64"></path><path d="M432.58,274.94l-23.91-10.83a.68.68,0,0,1-.33-.93l0-.07a.74.74,0,0,1,.95-.35l23.91,10.84a.68.68,0,0,1,.32.93l0,.06A.71.71,0,0,1,432.58,274.94Z" style="fill:#455a64"></path><path d="M434.47,272.28,409.59,261a.68.68,0,0,1-.33-.92l0-.07a.72.72,0,0,1,.94-.35l24.88,11.27a.69.69,0,0,1,.33.93l0,.07A.73.73,0,0,1,434.47,272.28Z" style="fill:#e0e0e0"></path><path d="M434.47,272.28a.81.81,0,0,0,.58,0,.78.78,0,0,0,.42-.55.66.66,0,0,0-.42-.75l-5.79-2.58-19.07-8.6a.61.61,0,0,0-.61.07.79.79,0,0,0-.27.57.59.59,0,0,0,.34.49l.68.31,2.68,1.21,5.05,2.3,8.56,3.9,5.75,2.66,1.56.73.41.19.13.08-.14,0-.42-.18-1.58-.69-5.79-2.58L418,264.92l-5.06-2.29-2.67-1.21-.69-.31a.82.82,0,0,1-.47-.68.88.88,0,0,1,.1-.43.9.9,0,0,1,.27-.35.88.88,0,0,1,.86-.1l19,8.67,5.76,2.65a.73.73,0,0,1,.45.85.86.86,0,0,1-.47.58.77.77,0,0,1-.46,0A.49.49,0,0,1,434.47,272.28Z" style="fill:#263238"></path><path d="M412.07,247.55c-.12.24-2.34,6.09-3.47,9.09a3.75,3.75,0,0,0,.3,3.31l.89,1.44,24.78,11.34,1.69-.25a4,4,0,0,0,2.86-1.9l5-8.37Z" style="fill:#455a64"></path><g style="opacity:0.30000000000000004"><path d="M408,267.25a40.35,40.35,0,0,0,7.68,4.22c2.28,1,4.49,2.11,7,3.2,1.83.79,3.54,1.47,5.38,2.23a5.79,5.79,0,0,0,2.31.53Z"></path></g><g style="opacity:0.30000000000000004"><path d="M409.41,264.39a40.88,40.88,0,0,0,7.68,4.21c2.28,1,4.49,2.12,7,3.2,1.83.8,3.54,1.48,5.38,2.23a5.86,5.86,0,0,0,2.31.54Z"></path></g><path d="M437.93,271.49c0,.06-6.68-2.92-14.85-6.66S408.3,258,408.33,258s6.68,2.93,14.85,6.67S438,271.44,437.93,271.49Z" style="fill:#263238"></path><path d="M444,262c0,.07-7.27-3.14-16.16-7.16s-16.08-7.35-16.05-7.42,7.26,3.14,16.16,7.17S444.05,261.9,444,262Z" style="fill:#263238"></path><g style="opacity:0.2"><path d="M447.78,197a6.39,6.39,0,0,1,4.21-3,10.85,10.85,0,0,1,8.13,1c7.26,3.91,11.3,8.59,13.61,16.87.78,2.8,1.06,7.43-.42,10.16a5.79,5.79,0,0,1-3.48,2.9c-3.93,1.09-6.9-2.67-8-6.26-1-3.34-1.3-7.1-3.6-9.71-1.9-2.15-4.82-3.09-7.23-4.67S446.58,199.69,447.78,197Z" style="fill:#fff"></path></g><g style="opacity:0.2"><path d="M464.42,230.94c1.79-1.85,5.11-2,6.7-.8a5.36,5.36,0,0,1,2,4.39,5.28,5.28,0,0,1-3.52,4.59,4.8,4.8,0,0,1-5.37-1.79C463.11,235.66,463,232.42,464.42,230.94Z" style="fill:#fff"></path></g></g><g id="freepik--speech-bubble--inject-12"><path d="M102.3,182.56l-10.86-1.89a35.19,35.19,0,1,1,7.67-10v0Z" style="fill:#fff"></path><path d="M101.57,179.56c-.53-2.07-1.28-5.05-2.26-8.91a35.23,35.23,0,0,0,3.93-17,34.48,34.48,0,0,0-2.1-11.12A35.26,35.26,0,0,0,83.71,122.9a35.39,35.39,0,0,0-43.62,9.58A35.29,35.29,0,0,0,33,148a36,36,0,0,0,.75,16.33,34.87,34.87,0,0,0,7.36,13.51A35.49,35.49,0,0,0,76.23,189a34.89,34.89,0,0,0,15.26-8.17l8.08,1.31,2.06.32.67.09-.74-.16-2.09-.4-8-1.5h-.08l-.06,0a35,35,0,0,1-49.72-3.13,34.22,34.22,0,0,1-7.17-13.24,35.34,35.34,0,0,1-.71-16A34.76,34.76,0,0,1,69,119.9a34.82,34.82,0,0,1,31.53,22.88,34.25,34.25,0,0,1,2.14,10.94A35.15,35.15,0,0,1,99,170.58v.11l2.46,8.78c.27,1,.49,1.74.65,2.29s.24.8.24.8,0-.24-.17-.74S101.81,180.52,101.57,179.56Z" style="fill:#263238"></path><path d="M67.93,190.29a35.79,35.79,0,0,1-27.05-12.24,35.37,35.37,0,0,1-7.42-13.61A36.44,36.44,0,0,1,32.71,148a35.78,35.78,0,0,1,36.37-29.1,35.84,35.84,0,0,1,25.86,12.49,35.34,35.34,0,0,1,6.44,11.12,34.36,34.36,0,0,1,2.11,11.2,35.58,35.58,0,0,1-3.92,17l2.24,8.81h0l.56,2.26c.09.36.15.58.17.72a.34.34,0,0,1,0,.1c0,.09,0,.12-.06.15a.17.17,0,0,1-.15.08h-.09l-.66-.09-10-1.6a35.39,35.39,0,0,1-15.28,8.15A33.82,33.82,0,0,1,67.93,190.29Zm-.37-70.93A35.28,35.28,0,0,0,33.2,148.08,35.92,35.92,0,0,0,34,164.31a34.82,34.82,0,0,0,7.31,13.41,35.23,35.23,0,0,0,34.91,11.05c.79-.2,1.56-.42,2.3-.65q-1.11.34-2.31.63a35.25,35.25,0,0,1-34.74-11.17,34.87,34.87,0,0,1-7.23-13.35,35.72,35.72,0,0,1-.71-16.09,35,35,0,0,1,35.58-28.49,35.3,35.3,0,0,1,25.37,12.17,34.81,34.81,0,0,1,6.38,10.88,34.18,34.18,0,0,1,2.15,11,35.64,35.64,0,0,1-.09,3.76,35.45,35.45,0,0,0,.12-3.76,34.07,34.07,0,0,0-2.08-11.05,35,35,0,0,0-6.35-11,35.42,35.42,0,0,0-25.5-12.31Q68.31,119.36,67.56,119.36Zm.08.76a34.56,34.56,0,0,0-26.73,13A34.18,34.18,0,0,0,34,148.23a35.19,35.19,0,0,0,.71,15.87,34.12,34.12,0,0,0,7.12,13.15,34.72,34.72,0,0,0,49.36,3.11l.06-.06a.27.27,0,0,1,.21-.06l10.18,1.92.32.06-.11-.39-.65-2.29-2.46-8.79s0,0,0-.06v-.11a.27.27,0,0,1,0-.12,35.17,35.17,0,0,0,3.73-16.73,33.74,33.74,0,0,0-2.12-10.86,34.27,34.27,0,0,0-6.29-10.73,34.78,34.78,0,0,0-25-12Z" style="fill:#263238"></path><path d="M57.54,154.62a4.89,4.89,0,1,1-4.89-4.89A4.89,4.89,0,0,1,57.54,154.62Z" style="fill:#263238"></path><path d="M72.74,154.62a4.9,4.9,0,1,1-4.89-4.89A4.89,4.89,0,0,1,72.74,154.62Z" style="fill:#263238"></path><path d="M87.94,154.62a4.9,4.9,0,1,1-4.9-4.89A4.9,4.9,0,0,1,87.94,154.62Z" style="fill:#263238"></path></g><g id="freepik--brain-side-2--inject-12"><path d="M361.47,152.57s4.57-5.23-3.27-18-7.51-17.65-18-21.57S327.49,106.5,320.3,101s-22.54-24.83-46.72-19-18.8,27.44-19.53,38.55,1.71,29.73,0,39.53-1.88,23.85,0,29.73,0,37.57,0,37.57v91.48s-3.34,83.31,4.83,92.46,24.88,20.26,48.87,12.09,31.83-15,37.38-21.24c0,0,18-7.84,17.67-29.08a36.29,36.29,0,0,0,12.06-13.72c4.58-9.14,10.46-15.35,11.77-24.17s-2-11.11-2-11.11,3.92-1.31,5.55-13.07,5.88-18.3,4.9-23.52a20.88,20.88,0,0,0-4.57-9.15s3.23-1.63,4.72-7.84,2.46-21.24,2.14-29.41-2.29-12.74-2.29-12.74,1-23.52-7.51-26.79l-3.6-1.63s3.6-2.94-.32-10.13-3.27-16-6.87-21.89S369.64,151.59,361.47,152.57Z" style="fill:#9B5EFF"></path><g style="opacity:0.30000000000000004"><path d="M363.29,316.47l-.1,0Z"></path></g><g style="opacity:0.30000000000000004"><path d="M363.19,316.5Z"></path></g><g style="opacity:0.30000000000000004"><path d="M363.29,316.47Z"></path></g><g style="opacity:0.30000000000000004"><path d="M364.92,324.41c-.32-2.68-1.07-5.3-1.63-7.94a22.89,22.89,0,0,1,4.83,15.42c2.79.32,6.65-1.66,7.85-2-3.31,3.89-11,8.53-12.15,13.23-1.18,4.91,5,9.13,2.49,14.59-1.78-1.58-1-2.79-1.34-4.62-1.94-9.3-12.54-8.71-17.45-7.46a83.73,83.73,0,0,1,8.69-4.62C364.81,337.31,366,333.6,364.92,324.41Z"></path></g><g style="opacity:0.30000000000000004"><path d="M342.4,348.59l1.46-.82-6.72,6.41c-1.61.55-4.87,1.55-10.64-2.15C336.39,355.77,338.31,350.85,342.4,348.59Z"></path></g><g style="opacity:0.30000000000000004"><path d="M347.52,345.64c-1.24.73-2.47,1.45-3.66,2.13l1.22-1.16A6.45,6.45,0,0,1,347.52,345.64Z"></path></g><g style="opacity:0.30000000000000004"><path d="M327.47,391.93c-5.22,5.18-9.64,11.64-15.76,15-5.78,3.17-13.35,3.08-19.93,5.3,8.85,2.44,16.74.72,24.13-4.7,6.81-5,13.9-9.63,21-14.18s12.78-10.59,15.13-19c.39-1.38.06-3-1.64-4.89-.74,2-1.65,3.88-2.2,5.89-2.08,7.65-7,12.89-14,16.05C332.07,392.33,329.27,391.82,327.47,391.93Z"></path></g><g style="opacity:0.30000000000000004"><path d="M282,164.83c8.78,12.56-2.86,28.61,2.76,34.09.58-1.59-.78-3.38.18-4.6C292.74,184.47,290,169.72,282,164.83Z"></path></g><g style="opacity:0.30000000000000004"><path d="M277.33,389.44l9.58,5.95,12.7-5.95Z"></path></g><path d="M252.92,283.66a1.88,1.88,0,0,1,.38.09l1.08.32,1.76.54c.7.2,1.53.37,2.44.6a60,60,0,0,0,15.87,1.53,57.53,57.53,0,0,0,10.88-1.61,43.48,43.48,0,0,0,11.6-4.91,35.16,35.16,0,0,0,10.18-9.34c2.62-4.07,4.16-8.94,6.77-13.45a20.36,20.36,0,0,1,2-2.92c.77-.89,1.63-1.68,2.45-2.5a41.35,41.35,0,0,1,5.44-4.17,49.58,49.58,0,0,1,11.75-5.5,85.25,85.25,0,0,1,22-3.67l-.19.15c1-3.83,2-7.29,3-10.3a79.79,79.79,0,0,1,2.86-7.59,40.34,40.34,0,0,1,3.25-6.11,3.14,3.14,0,0,1-.2.41l-.64,1.17c-.55,1-1.33,2.58-2.2,4.62s-1.83,4.59-2.77,7.6-1.87,6.47-2.88,10.3l0,.14h-.14a85.24,85.24,0,0,0-21.88,3.75,49.18,49.18,0,0,0-11.62,5.46,41.78,41.78,0,0,0-5.36,4.12c-.8.81-1.66,1.59-2.41,2.46a19,19,0,0,0-2,2.84c-2.58,4.44-4.11,9.31-6.79,13.46a35.47,35.47,0,0,1-10.37,9.48,43.46,43.46,0,0,1-11.74,4.91,56.8,56.8,0,0,1-11,1.57,58.69,58.69,0,0,1-15.93-1.7c-.91-.25-1.73-.44-2.43-.66l-1.75-.59-1.07-.37A1.76,1.76,0,0,1,252.92,283.66Z" style="fill:#263238"></path><path d="M278.16,343.21a.72.72,0,0,1,0-.27c0-.21,0-.47-.06-.8a12.11,12.11,0,0,1,.38-3c.62-2.61,2.63-6.07,6.06-9.39,1.7-1.67,3.73-3.3,5.82-5.13a32.4,32.4,0,0,0,6-6.47,17,17,0,0,0,2-4.28,43.08,43.08,0,0,0,1.13-4.86,41.65,41.65,0,0,1,1.23-5.08,16.59,16.59,0,0,1,2.48-4.82,23.5,23.5,0,0,1,8.18-6.73,41.14,41.14,0,0,1,9.29-3.32c6.12-1.45,11.73-2.2,16.26-3.58a33.17,33.17,0,0,0,10.1-4.66,25.21,25.21,0,0,0,2.36-1.91l.58-.55c.13-.12.2-.18.21-.17a15.77,15.77,0,0,1-3,2.8A32.4,32.4,0,0,1,337,285.8c-4.54,1.44-10.17,2.22-16.24,3.69a40.71,40.71,0,0,0-9.17,3.32,23,23,0,0,0-8,6.58,16.15,16.15,0,0,0-2.41,4.66,40.76,40.76,0,0,0-1.22,5,43.35,43.35,0,0,1-1.16,4.91,17.45,17.45,0,0,1-2.08,4.4,32.51,32.51,0,0,1-6.1,6.53c-2.11,1.83-4.15,3.43-5.85,5.07-3.42,3.25-5.44,6.63-6.12,9.18A14.07,14.07,0,0,0,278.16,343.21Z" style="fill:#263238"></path><path d="M364,278.56c0,.16-3.19-.48-7.15-.55s-7.15.42-7.17.26a6.92,6.92,0,0,1,2.06-.48,31.67,31.67,0,0,1,10.22.21A7.34,7.34,0,0,1,364,278.56Z" style="fill:#263238"></path><path d="M349.72,269.52a7.09,7.09,0,0,1,1.27,4.53,7.19,7.19,0,0,1-1.34,4.51,20.92,20.92,0,0,0,.81-4.51A20.28,20.28,0,0,0,349.72,269.52Z" style="fill:#263238"></path><path d="M326.6,329.9a31.39,31.39,0,0,0,3.57-5.68,24.84,24.84,0,0,0,2.06-7,22.92,22.92,0,0,0-4.05-16.86,24.42,24.42,0,0,0-5-5.26,32.58,32.58,0,0,0-5.76-3.44s.16,0,.45.13.73.24,1.26.49a21.79,21.79,0,0,1,4.28,2.52,24.22,24.22,0,0,1,5.16,5.27,22.94,22.94,0,0,1,4.14,17.22,24.22,24.22,0,0,1-2.21,7,21.76,21.76,0,0,1-2.67,4.19,12.5,12.5,0,0,1-.9,1C326.73,329.81,326.61,329.92,326.6,329.9Z" style="fill:#263238"></path><path d="M325.74,351.35a22,22,0,0,0,2.42,1.74,12.32,12.32,0,0,0,3.19,1.35,8.55,8.55,0,0,0,4.5,0,9.33,9.33,0,0,0,4.44-3.15,31.38,31.38,0,0,1,4.44-4.75c1.89-1.43,4.37-1.95,6.8-2.32a18.72,18.72,0,0,0,7.21-2.14,13.3,13.3,0,0,0,3-2.33,15.09,15.09,0,0,0,2.32-2.89,17.53,17.53,0,0,0,2.5-6.54,18.14,18.14,0,0,0-.17-6.35,20.84,20.84,0,0,0-1.86-5.24,24.1,24.1,0,0,0-4.82-6.47,21,21,0,0,0-1.65-1.47,4.28,4.28,0,0,1-.58-.52,6.43,6.43,0,0,1,.65.43,18.26,18.26,0,0,1,1.72,1.41,23,23,0,0,1,5,6.45,21.08,21.08,0,0,1,2,5.32,18.81,18.81,0,0,1,.22,6.52,18.15,18.15,0,0,1-2.55,6.73,15.78,15.78,0,0,1-2.38,3,14.26,14.26,0,0,1-3.13,2.41,14,14,0,0,1-3.66,1.5c-1.26.32-2.51.5-3.74.69-2.43.37-4.8.87-6.59,2.21a32,32,0,0,0-4.41,4.65,9.58,9.58,0,0,1-4.66,3.21,8.75,8.75,0,0,1-4.68-.09,12.47,12.47,0,0,1-3.22-1.46A10,10,0,0,1,325.74,351.35Z" style="fill:#263238"></path><path d="M317,372.14c0-.1,1.28-.18,3.2-.85a14.53,14.53,0,0,0,9.62-11.58c.31-2,.14-3.29.24-3.3a2.4,2.4,0,0,1,.17.89,13,13,0,0,1,0,2.46,14,14,0,0,1-9.87,11.88,12.28,12.28,0,0,1-2.41.49A2.94,2.94,0,0,1,317,372.14Z" style="fill:#263238"></path><path d="M283,407.44a4.43,4.43,0,0,1,.82.29c.52.21,1.31.49,2.33.82a35.19,35.19,0,0,0,8.9,1.62,33.66,33.66,0,0,0,26.71-11,33.16,33.16,0,0,0,3.95-5.26l.08-.13H326a23.71,23.71,0,0,0,13.29-3.88,23.16,23.16,0,0,0,7.57-8.21,24.12,24.12,0,0,0,2.55-7c.18-.86.27-1.54.32-2a4,4,0,0,1,.11-.7,3.71,3.71,0,0,1,0,.7,18.34,18.34,0,0,1-.23,2,23.5,23.5,0,0,1-2.44,7.18,23.16,23.16,0,0,1-7.62,8.43,24,24,0,0,1-13.54,4l.22-.12a32.61,32.61,0,0,1-4,5.35,34.43,34.43,0,0,1-13.74,9.15,33.91,33.91,0,0,1-22.33.07c-1-.37-1.79-.68-2.31-.92A4.89,4.89,0,0,1,283,407.44Z" style="fill:#263238"></path><path d="M365.66,361.45c-.09,0,.37-1.18.66-3.14a17.59,17.59,0,0,0-.51-7.61,17.81,17.81,0,0,0-3.75-6.64c-1.33-1.47-2.34-2.18-2.29-2.26a2.64,2.64,0,0,1,.76.45,13.4,13.4,0,0,1,1.8,1.56,16.23,16.23,0,0,1,4.36,14.56,13,13,0,0,1-.65,2.3A2.32,2.32,0,0,1,365.66,361.45Z" style="fill:#263238"></path><path d="M366.31,332.75c0-.1,1,.11,2.65,0a11.16,11.16,0,0,0,9.61-7.19c.59-1.52.67-2.55.76-2.54s.05.26,0,.73a8.9,8.9,0,0,1-.42,1.94A10.73,10.73,0,0,1,369,333.1a9.46,9.46,0,0,1-2-.14C366.54,332.87,366.3,332.78,366.31,332.75Z" style="fill:#263238"></path><path d="M370.05,275.07a5.49,5.49,0,0,1,.8.9,25.72,25.72,0,0,1,1.86,2.67,33.44,33.44,0,0,1,2.24,4.28,34.48,34.48,0,0,1,2.77,11.48,33.16,33.16,0,0,1,0,4.83,24.29,24.29,0,0,1-.44,3.23,4.79,4.79,0,0,1-.3,1.15c-.09,0,.23-1.68.37-4.4a39.4,39.4,0,0,0-.08-4.78,40.32,40.32,0,0,0-.92-5.76,42.21,42.21,0,0,0-1.81-5.56,38.91,38.91,0,0,0-2.11-4.28C371,276.47,370,275.14,370.05,275.07Z" style="fill:#263238"></path><g style="opacity:0.30000000000000004"><path d="M384.69,251.69c.81-4.78.61-10.22-2.26-14.12,4.25,3.33,5.43,9,4.59,14.29s-3.23,11.1-8.3,13A31.79,31.79,0,0,0,384.69,251.69Z"></path></g><path d="M378.94,264.52a32,32,0,0,0,3.33-3,17.66,17.66,0,0,0,2.6-20.13,32.39,32.39,0,0,0-2.44-3.78,4.37,4.37,0,0,1,.87.85,15.89,15.89,0,0,1,1.91,2.75,17.4,17.4,0,0,1-2.66,20.57,16.13,16.13,0,0,1-2.54,2.17A4.75,4.75,0,0,1,378.94,264.52Z" style="fill:#263238"></path><path d="M356.32,209.33a19,19,0,0,0,4.81-3.24,16.18,16.18,0,0,0,3.56-5.13,14.25,14.25,0,0,0-1.53-14.53,16,16,0,0,0-4.55-4.27,18.8,18.8,0,0,0-5.37-2.17s.14,0,.41,0a11.26,11.26,0,0,1,1.15.2,14.14,14.14,0,0,1,4,1.63,16,16,0,0,1,4.75,4.3,14.5,14.5,0,0,1,1.58,15,15.73,15.73,0,0,1-3.76,5.2,13.55,13.55,0,0,1-3.57,2.42,9.45,9.45,0,0,1-1.09.44C356.46,209.31,356.33,209.35,356.32,209.33Z" style="fill:#263238"></path><path d="M326.11,228.2a1.55,1.55,0,0,1-.11-.45,10.58,10.58,0,0,1-.17-1.33,17.64,17.64,0,0,1,.31-4.92,19.68,19.68,0,0,1,2.73-6.78,18.32,18.32,0,0,1,15-8.71,19.65,19.65,0,0,1,7.24,1,17.54,17.54,0,0,1,4.42,2.17,9.75,9.75,0,0,1,1.07.8,1.66,1.66,0,0,1,.34.32,23.74,23.74,0,0,0-5.95-2.93,20,20,0,0,0-7.1-.86A18.16,18.16,0,0,0,329.28,215a20,20,0,0,0-2.77,6.59A23.94,23.94,0,0,0,326.11,228.2Z" style="fill:#263238"></path><path d="M302.35,139s0,0,.14.14l.37.44c.33.39.8,1,1.38,1.77a36.55,36.55,0,0,1,4.21,7.32,27.73,27.73,0,0,1,1.72,5.72,21.6,21.6,0,0,1,.18,7,22.61,22.61,0,0,1-.91,3.74,20.42,20.42,0,0,1-1.72,3.68,15.81,15.81,0,0,1-6.25,6v-.44a30.34,30.34,0,0,1,8.67,6.31,21.77,21.77,0,0,1,5.53,10,18,18,0,0,1-.76,10.09,14.51,14.51,0,0,1-6,7.38l.05-.39a16.11,16.11,0,0,1,3.83,8.28,22.41,22.41,0,0,1-.33,8.33,26.61,26.61,0,0,1-2.69,6.91,41,41,0,0,1-3.52,5.28,77.85,77.85,0,0,1-6,6.71l-1.7,1.69-.45.43c-.1.09-.15.14-.16.13a1.59,1.59,0,0,1,.13-.16l.42-.46,1.64-1.75a87.72,87.72,0,0,0,5.86-6.78,41.11,41.11,0,0,0,3.44-5.27,26.42,26.42,0,0,0,2.6-6.82,22,22,0,0,0,.28-8.17,15.73,15.73,0,0,0-3.73-8l-.21-.23.27-.16a14,14,0,0,0,5.74-7.12,17.59,17.59,0,0,0,.73-9.8,21.41,21.41,0,0,0-5.39-9.77,30,30,0,0,0-8.51-6.23l-.45-.22.44-.22a15.34,15.34,0,0,0,6.08-5.75A19.46,19.46,0,0,0,309,165a21.75,21.75,0,0,0,.91-3.66,24,24,0,0,0-1.77-12.53,38.12,38.12,0,0,0-4.05-7.34c-.56-.81-1-1.41-1.31-1.82l-.34-.46A1.38,1.38,0,0,1,302.35,139Z" style="fill:#263238"></path><path d="M302.49,132.11a3.68,3.68,0,0,1,.65-.4,17.86,17.86,0,0,1,2-.9,21.35,21.35,0,0,1,8-1.26,30,30,0,0,1,11.64,2.8,64.36,64.36,0,0,1,12.49,7.71,21.36,21.36,0,0,1,6.44,7.63,11.72,11.72,0,0,1,.61,8.82l-.32-.29a38.57,38.57,0,0,1,7.23-2.74,30.88,30.88,0,0,1,5.88-.95,37.38,37.38,0,0,1,3.83-.06l1,.05c.22,0,.34,0,.34,0a1.35,1.35,0,0,1-.35,0l-1,0c-.88,0-2.18,0-3.81.19a32.8,32.8,0,0,0-5.81,1,38.88,38.88,0,0,0-7.11,2.8l-.52.26.2-.55a11.27,11.27,0,0,0-.65-8.45,21,21,0,0,0-6.3-7.42,65,65,0,0,0-12.37-7.68,30.11,30.11,0,0,0-11.44-2.88,22.29,22.29,0,0,0-7.9,1.08c-.9.31-1.57.6-2,.81A5.14,5.14,0,0,1,302.49,132.11Z" style="fill:#263238"></path><path d="M330.92,122.26a1.88,1.88,0,0,1,.7-.21,9.67,9.67,0,0,1,2-.18,11.75,11.75,0,0,1,10.55,6.79,10.74,10.74,0,0,1,.66,1.87c.1.46.13.72.09.73s-.32-1-1.09-2.43a12.25,12.25,0,0,0-10.22-6.58C332,122.15,330.94,122.36,330.92,122.26Z" style="fill:#263238"></path><path d="M281.71,109.09a18.67,18.67,0,0,1,4.38-.36,18,18,0,0,1,4.39.16,35.76,35.76,0,0,1-8.77.2Z" style="fill:#263238"></path><path d="M283.44,149.07c-.05,0,.32-.67.78-1.9a19,19,0,0,0,1.12-5.45,18.14,18.14,0,0,0-1.46-8,25.54,25.54,0,0,0-2.46-4.21,23.64,23.64,0,0,1-2.64-4.63,8.7,8.7,0,0,1-.58-2.7,7.85,7.85,0,0,1,.36-2.66c.5-1.67,1.31-3.13,1.83-4.58a13.84,13.84,0,0,0,.37-8.09,14.93,14.93,0,0,0-2.35-5c-.8-1-1.34-1.55-1.3-1.59a2.88,2.88,0,0,1,.41.34,10.57,10.57,0,0,1,1.05,1.13,14.17,14.17,0,0,1,2.29,13.38c-.54,1.51-1.33,3-1.8,4.57a7.43,7.43,0,0,0,.22,5c1.31,3.3,3.86,5.85,5.05,8.84a18,18,0,0,1,1.38,8.25,17.17,17.17,0,0,1-1.3,5.5,11.82,11.82,0,0,1-.68,1.38C283.56,148.93,283.46,149.08,283.44,149.07Z" style="fill:#263238"></path><path d="M284.78,198.92s-.08-.1-.17-.31a3.67,3.67,0,0,1-.27-1,7.06,7.06,0,0,1,.6-3.74c.6-1.5,1.73-3.05,2.54-4.94a20.89,20.89,0,0,0,1.65-6.49,22.34,22.34,0,0,0-2.29-11.87,33.82,33.82,0,0,0-2.76-4.28,6.06,6.06,0,0,1,1,1,18.84,18.84,0,0,1,2.12,3.12,21.75,21.75,0,0,1,2.49,12.09,20.38,20.38,0,0,1-1.73,6.65c-.87,2-2,3.46-2.64,4.89a7.33,7.33,0,0,0-.75,3.56C284.61,198.45,284.83,198.9,284.78,198.92Z" style="fill:#263238"></path><path d="M258,214.6c.08-.06.83,1,2.43,2.37a15.78,15.78,0,0,0,15.24,3c2-.64,3.09-1.36,3.14-1.27a3,3,0,0,1-.75.54,12.79,12.79,0,0,1-2.27,1.09,15.46,15.46,0,0,1-8.24.66,15.3,15.3,0,0,1-7.37-3.75,12,12,0,0,1-1.69-1.86A3.35,3.35,0,0,1,258,214.6Z" style="fill:#263238"></path><path d="M291.64,249.64a1.49,1.49,0,0,1-.91.28,4.69,4.69,0,0,1-2.49-.72,44.47,44.47,0,0,1-6.78-5,46.08,46.08,0,0,1-5.77-6.15c-.66-.85-1.17-1.57-1.5-2.07a3.36,3.36,0,0,1-.47-.82c.07,0,.87,1,2.26,2.65a60.47,60.47,0,0,0,5.84,6,57.43,57.43,0,0,0,6.61,5.11,4.89,4.89,0,0,0,2.3.83C291.31,249.74,291.62,249.59,291.64,249.64Z" style="fill:#263238"></path><path d="M275.82,256.6c-.05-.07.68-.54,1.64-1.53a11.33,11.33,0,0,0,3.09-9.84c-.22-1.36-.55-2.17-.47-2.2a5.15,5.15,0,0,1,.84,2.13,10.57,10.57,0,0,1-3.2,10.18A5.31,5.31,0,0,1,275.82,256.6Z" style="fill:#263238"></path><g style="opacity:0.30000000000000004"><path d="M355.77,209.09a20.19,20.19,0,0,0-29.84,18.06,18.55,18.55,0,0,1,19-23.79c3.83.24,7.72,1.65,11.41.6a13,13,0,0,0,5.46-3.49c2.21-2.19,4.07-5.1,3.82-8.21,0,0,2.25,7-2.05,11.29A24.11,24.11,0,0,1,355.77,209.09Z"></path></g><g style="opacity:0.30000000000000004"><path d="M336.63,136.79a25.92,25.92,0,0,1,6.95,6.74,13.54,13.54,0,0,1,2.33,9.23,48.12,48.12,0,0,1,16.37-.19c-7.07.56-12.12.24-17.88,3.91a19.73,19.73,0,0,0-5.14-14.38,32.67,32.67,0,0,0-13-8.54,98.56,98.56,0,0,0-15.15-4C320.11,128.61,329.23,131.61,336.63,136.79Z"></path></g><g style="opacity:0.30000000000000004"><path d="M281.55,109l6.3-.41a5.39,5.39,0,0,0,2.67-.65,12.86,12.86,0,0,0-5.22-.67,2.05,2.05,0,0,1-1-.08,2.08,2.08,0,0,1-.9-1.18,13.06,13.06,0,0,0-4.48-5.37,8.55,8.55,0,0,0,1.51,4.13,6,6,0,0,1,1,4.23"></path></g><g style="opacity:0.30000000000000004"><path d="M281.11,243.73a23.37,23.37,0,0,0,14.34,6.53,12.51,12.51,0,0,1-10.05.17,29.87,29.87,0,0,1-4.92,5.77c-1.94,1.62-5.34,1.78-7.87,1.61,2.22-1.32,5.46-1.76,6.73-4a14.91,14.91,0,0,0,1.44-6c.16-1.67.25-3.58-.94-4.78"></path></g><g style="opacity:0.30000000000000004"><path d="M362.86,278a8.06,8.06,0,0,0-4.39-2.38,22.42,22.42,0,0,0-5.05-.31,5.87,5.87,0,0,0-2.36-4.5.49.49,0,0,0-.38-.13c-.31.05-.28.5-.19.8a8,8,0,0,1-.46,5.81c-.13.25-.25.61,0,.79a.56.56,0,0,0,.34.08,59.71,59.71,0,0,0,6.26-.36,16,16,0,0,1,6.21.52"></path></g><g style="opacity:0.30000000000000004"><path d="M278.11,338.28c3.31-3.63,1.34-3.72,5.05-6.92,9-7.78,10.53-10.27,14.82-16.12,1.27-1.73,1-4.06,1.55-6.05.63-2.43.52-5.81,1.81-7.43,4.06-5.4,8.32-9.68,13.26-10,2.81-1.8,8.26-3.2,11.14-3.58a54,54,0,0,0,12.56-3c4.71-1.67,8.34-3.24,11.52-7.1l.66.27c-3.15,6.14-9.49,10.13-16.12,12a61.76,61.76,0,0,1-15.94,1.88,12.66,12.66,0,0,1,2,.84c15.43,11.4,14.79,23.6,8.3,32.9-5.63,8.07-9.08,18.15-19.2,22.38-6.89,2.87-13.81,5.68-20.71,8.52,1.35-2.41,3.2-4.79,5.64-6,4.48-2.17,9.41-3.39,13.95-5.46,6.38-2.92,11.59-6.92,10.29-15.51,12.95-6.5,15.34-22.81,4.82-32.29-1.73-1.55-6.52-2.33-7.94-1.14-4.76,4-10,8.4-12.54,13.83-4.23,9-8.37,17.5-16.54,23.67-2.77,2.09-4.51,5.49-6.86,8.18a23.7,23.7,0,0,1-3.32,2.7C275.65,344.28,278.74,338.88,278.11,338.28Z"></path></g><g style="opacity:0.30000000000000004"><path d="M296.4,281.33c7.78-4.28,12.44-12.95,16.15-20.26-1.91,10.3-8.22,20.28-17.58,25a34.65,34.65,0,0,1-30.33.16C275.49,286.46,286.9,286.55,296.4,281.33Z"></path></g><g style="opacity:0.2"><path d="M339.92,181.15a9.75,9.75,0,0,1,4.35-1.15,7.26,7.26,0,0,1,2.49.32,46.26,46.26,0,0,1,8.51,3.25,17.21,17.21,0,0,1,7.34,6.94c.81,1.57,1.26,3.58.25,5a4,4,0,0,1-3.64,1.46,9.36,9.36,0,0,1-3.81-1.46c-4.11-2.42-7.73-5.79-12.25-7.3-2.05-.69-4.61-1.31-5-3.54A3.45,3.45,0,0,1,339.92,181.15Z" style="fill:#fff"></path></g><g style="opacity:0.2"><path d="M314.74,135.07a9.71,9.71,0,0,1,4.34-1.15,7.23,7.23,0,0,1,2.49.32,46.63,46.63,0,0,1,8.52,3.25,17.26,17.26,0,0,1,7.34,6.94c.81,1.57,1.26,3.58.25,5a4,4,0,0,1-3.65,1.46,9.41,9.41,0,0,1-3.81-1.46c-4.1-2.42-7.72-5.79-12.24-7.3-2.05-.69-4.61-1.31-5-3.54A3.45,3.45,0,0,1,314.74,135.07Z" style="fill:#fff"></path></g><g style="opacity:0.2"><path d="M261.56,94.2c1.09-2.17,1.95-4.84,4-6.08a28.53,28.53,0,0,1,11.28-3.7h0c8.74-1.3,17.32,3.1,24.42,8.36s13.56,11.59,21.64,15.17a13.92,13.92,0,0,1,3.19,1.69,3.79,3.79,0,0,1,1.58,3.1c-.15,2.1-2.54,3.26-4.63,3.57-7,1.06-13.87-2.31-19.63-6.39s-11.05-9-17.55-11.77c-3.2-1.36-7.07-2.11-10-.29-2.05,1.25-3.31,3.52-5.39,4.72a6.39,6.39,0,0,1-8.91-8.38Z" style="fill:#fff"></path></g><path d="M380.7,197.59a10.48,10.48,0,0,1-.35-1.58c-.19-1-.5-2.49-.94-4.28s-1.06-3.92-1.84-6.23a78.18,78.18,0,0,0-3-7.36,76.62,76.62,0,0,0-3.84-7c-1.31-2.07-2.57-3.88-3.7-5.35s-2.06-2.63-2.74-3.42a9.51,9.51,0,0,1-1-1.26,10.08,10.08,0,0,1,1.15,1.13c.73.74,1.72,1.87,2.89,3.32a62.77,62.77,0,0,1,3.82,5.31,70.49,70.49,0,0,1,3.9,7,69.26,69.26,0,0,1,3,7.43,62.24,62.24,0,0,1,1.74,6.3c.4,1.82.66,3.3.78,4.34A9,9,0,0,1,380.7,197.59Z" style="fill:#fff"></path><path d="M359,200.21a17.78,17.78,0,0,0,1.91-2.48,9.39,9.39,0,0,0-3.33-13,19.72,19.72,0,0,0-2.86-1.27,2.53,2.53,0,0,1,.86.1,8.42,8.42,0,0,1,2.19.84,9.41,9.41,0,0,1,3.46,13.52,8.26,8.26,0,0,1-1.52,1.79A2.62,2.62,0,0,1,359,200.21Z" style="fill:#fff"></path><path d="M309.17,198.37c-.08,0,.13-.74.25-1.9A12,12,0,0,0,307,187.9a18.11,18.11,0,0,1-1.21-1.48,4.38,4.38,0,0,1,1.5,1.24,10.77,10.77,0,0,1,2.51,8.86A4.54,4.54,0,0,1,309.17,198.37Z" style="fill:#fff"></path><path d="M355.1,139.57c0-.06.4.14.84.61a5.4,5.4,0,0,1,1.21,2.21,5.34,5.34,0,0,1,.11,2.51c-.13.64-.34,1-.4,1a12.38,12.38,0,0,0-.22-3.33A12.48,12.48,0,0,0,355.1,139.57Z" style="fill:#fff"></path><path d="M379.25,254.41c-.14-.06.53-1.61.72-3.64s-.13-3.68,0-3.71a6.34,6.34,0,0,1,.51,3.76A6.24,6.24,0,0,1,379.25,254.41Z" style="fill:#fff"></path><path d="M387.56,301.27c-.08,0,.45-.92,1-2.43a17.51,17.51,0,0,0,0-12.35c-.58-1.52-1.11-2.38-1-2.43s.19.18.45.56a11.85,11.85,0,0,1,.93,1.72,15.84,15.84,0,0,1,0,12.64,10.78,10.78,0,0,1-.92,1.73C387.75,301.09,387.59,301.29,387.56,301.27Z" style="fill:#fff"></path><path d="M358.26,333.91c-.07-.07.68-.73,1.5-2.08a10.3,10.3,0,0,0-.45-11.5c-.92-1.28-1.72-1.88-1.66-1.95s.24.09.6.37a8.16,8.16,0,0,1,1.36,1.36,10,10,0,0,1,.46,11.92,8.56,8.56,0,0,1-1.24,1.46C358.49,333.8,358.28,333.93,358.26,333.91Z" style="fill:#fff"></path><path d="M360.34,357.37a37.24,37.24,0,0,0-.74-4,39.55,39.55,0,0,0-1.67-3.71,8.5,8.5,0,0,1,2.41,7.72Z" style="fill:#fff"></path><path d="M320.65,322.74a26.36,26.36,0,0,0,2.8-2.05,11.82,11.82,0,0,0,2.13-15.11,23.66,23.66,0,0,0-2.13-2.74,2.91,2.91,0,0,1,.76.57,9.85,9.85,0,0,1,1.68,2A11.7,11.7,0,0,1,323.7,321a10.25,10.25,0,0,1-2.17,1.43A3,3,0,0,1,320.65,322.74Z" style="fill:#fff"></path><path d="M326.72,389.86c0-.1,1.36-.43,3.46-1.3a28.33,28.33,0,0,0,3.55-1.8,31.46,31.46,0,0,0,3.93-2.87,30.51,30.51,0,0,0,3.38-3.5,29,29,0,0,0,2.27-3.27c1.16-2,1.67-3.28,1.76-3.25a3.24,3.24,0,0,1-.29,1,18.36,18.36,0,0,1-1.14,2.47,24.56,24.56,0,0,1-2.22,3.39,25.95,25.95,0,0,1-7.45,6.49,25.4,25.4,0,0,1-3.65,1.73,19,19,0,0,1-2.61.79A4.41,4.41,0,0,1,326.72,389.86Z" style="fill:#fff"></path><path d="M336.86,279.21a27,27,0,0,0,4.67-3.67,26.24,26.24,0,0,0,3.31-4.93,10.62,10.62,0,0,1-2.92,5.29A10.74,10.74,0,0,1,336.86,279.21Z" style="fill:#fff"></path><path d="M300.83,229.9c-.11-.12,1.94-1.74,3.87-4.26s3-4.91,3.13-4.84a17,17,0,0,1-7,9.1Z" style="fill:#fff"></path><g style="opacity:0.2"><path d="M376.09,228.13a3.68,3.68,0,0,0-4.26.44,18.85,18.85,0,0,0-3,3.5c-4.12,5.27-4.45,10.59-11,12s-13.38,2.14-19.24,5.35c-1.47.81-3,1.91-3.34,3.54a4.45,4.45,0,0,0,2.45,4.64,9.86,9.86,0,0,0,5.51.8c6.5-.53,12.53-3.4,18.4-6.23,8.06-3.88,11.69-10.23,15.11-18.49C376.77,233.65,378.85,230.14,376.09,228.13Z" style="fill:#fff"></path></g><g style="opacity:0.2"><path d="M322.85,260.61l1.37-.49a4.19,4.19,0,1,1-4.34,5.3A3.9,3.9,0,0,1,322.85,260.61Z" style="fill:#fff"></path></g></g><g id="freepik--brain-side-1--inject-12"><path d="M135.46,152.57s-4.57-5.23,3.27-18,7.51-17.65,18-21.57,12.74-6.53,19.93-12.08,22.54-24.83,46.71-19,18.81,27.44,19.54,38.55-1.71,29.73,0,39.53,1.88,23.85,0,29.73,0,37.57,0,37.57v91.48s3.33,83.31-4.83,92.46-24.88,20.26-48.87,12.09-31.83-15-37.38-21.24c0,0-18-7.84-17.67-29.08a36.36,36.36,0,0,1-12.07-13.72c-4.57-9.14-10.45-15.35-11.76-24.17s2-11.11,2-11.11-3.92-1.31-5.55-13.07-5.88-18.3-4.9-23.52a20.88,20.88,0,0,1,4.57-9.15s-3.23-1.63-4.72-7.84-2.46-21.24-2.14-29.41,2.29-12.74,2.29-12.74-1-23.52,7.51-26.79l3.6-1.63s-3.6-2.94.32-10.13,3.27-16,6.86-21.89S127.29,151.59,135.46,152.57Z" style="fill:#455a64"></path><g style="opacity:0.30000000000000004"><path d="M133.64,316.47l.1,0Z"></path></g><g style="opacity:0.30000000000000004"><path d="M133.74,316.5Z"></path></g><g style="opacity:0.30000000000000004"><path d="M133.64,316.47Z"></path></g><g style="opacity:0.30000000000000004"><path d="M132,324.41c.32-2.68,1.07-5.3,1.63-7.94a22.89,22.89,0,0,0-4.83,15.42c-2.79.32-6.65-1.66-7.85-2,3.31,3.89,11,8.53,12.15,13.23,1.18,4.91-5,9.13-2.49,14.59,1.78-1.58,1-2.79,1.34-4.62,1.94-9.3,12.54-8.71,17.45-7.46a84.76,84.76,0,0,0-8.69-4.62C132.12,337.31,130.9,333.6,132,324.41Z"></path></g><g style="opacity:0.30000000000000004"><path d="M154.53,348.59l-1.47-.82,6.73,6.41c1.61.55,4.86,1.55,10.64-2.15C160.54,355.77,158.62,350.85,154.53,348.59Z"></path></g><g style="opacity:0.30000000000000004"><path d="M149.41,345.64c1.24.73,2.46,1.45,3.65,2.13l-1.21-1.16A6.45,6.45,0,0,0,149.41,345.64Z"></path></g><g style="opacity:0.30000000000000004"><path d="M169.46,391.93c5.22,5.18,9.64,11.64,15.76,15,5.77,3.17,13.35,3.08,19.93,5.3-8.85,2.44-16.74.72-24.13-4.7-6.81-5-13.9-9.63-21-14.18s-12.78-10.59-15.14-19c-.38-1.38,0-3,1.65-4.89.74,2,1.65,3.88,2.19,5.89,2.08,7.65,7,12.89,14,16.05C164.86,392.33,167.66,391.82,169.46,391.93Z"></path></g><g style="opacity:0.30000000000000004"><path d="M214.91,164.83c-8.78,12.56,2.86,28.61-2.77,34.09-.57-1.59.79-3.38-.17-4.6C204.19,184.47,206.9,169.72,214.91,164.83Z"></path></g><g style="opacity:0.30000000000000004"><path d="M219.6,389.44,210,395.39l-12.7-5.95Z"></path></g><path d="M244,283.66a1.76,1.76,0,0,1-.36.14l-1.07.37-1.75.59c-.7.22-1.52.41-2.43.66a58.69,58.69,0,0,1-15.93,1.7,57,57,0,0,1-11-1.57,43.53,43.53,0,0,1-11.73-4.91,35.47,35.47,0,0,1-10.37-9.48c-2.68-4.15-4.21-9-6.79-13.46a19.71,19.71,0,0,0-2-2.84c-.75-.87-1.61-1.65-2.41-2.46a41.78,41.78,0,0,0-5.36-4.12,49.25,49.25,0,0,0-11.63-5.46,85.17,85.17,0,0,0-21.87-3.75h-.15l0-.14c-1-3.83-1.94-7.29-2.89-10.3a79.79,79.79,0,0,0-2.76-7.6c-.87-2-1.66-3.58-2.2-4.62l-.64-1.17a3.14,3.14,0,0,1-.2-.41,41,41,0,0,1,3.24,6.11,76.94,76.94,0,0,1,2.87,7.59c1,3,1.94,6.47,3,10.3l-.18-.15a85.25,85.25,0,0,1,22,3.67,49.58,49.58,0,0,1,11.75,5.5,40.61,40.61,0,0,1,5.43,4.17c.82.82,1.68,1.61,2.46,2.5a20.36,20.36,0,0,1,2,2.92c2.61,4.51,4.15,9.38,6.76,13.45A35.32,35.32,0,0,0,200,280.22a43.56,43.56,0,0,0,11.59,4.91,57.75,57.75,0,0,0,10.89,1.61,60,60,0,0,0,15.87-1.53c.91-.23,1.74-.4,2.44-.6l1.76-.54,1.08-.32A1.88,1.88,0,0,1,244,283.66Z" style="fill:#263238"></path><path d="M218.77,343.21a14.07,14.07,0,0,0-.48-4c-.68-2.55-2.7-5.93-6.12-9.18-1.7-1.64-3.74-3.24-5.85-5.07a32.22,32.22,0,0,1-6.1-6.53,17.11,17.11,0,0,1-2.08-4.4,45.63,45.63,0,0,1-1.17-4.91,40.71,40.71,0,0,0-1.21-5,16.4,16.4,0,0,0-2.41-4.66,23,23,0,0,0-8-6.58,40.71,40.71,0,0,0-9.17-3.32c-6.07-1.47-11.7-2.25-16.25-3.69A32.44,32.44,0,0,1,149.83,281a15.77,15.77,0,0,1-3-2.8s.08.05.21.17l.58.55a23.93,23.93,0,0,0,2.36,1.91,33.17,33.17,0,0,0,10.1,4.66c4.53,1.38,10.14,2.13,16.26,3.58a41.32,41.32,0,0,1,9.29,3.32,23.5,23.5,0,0,1,8.18,6.73,16.84,16.84,0,0,1,2.48,4.82,41.65,41.65,0,0,1,1.23,5.08,43.08,43.08,0,0,0,1.13,4.86,17,17,0,0,0,2,4.28,32.4,32.4,0,0,0,6,6.47c2.09,1.83,4.12,3.46,5.82,5.13,3.43,3.32,5.43,6.78,6.06,9.39a12.11,12.11,0,0,1,.38,3c0,.33,0,.59-.06.8A.72.72,0,0,1,218.77,343.21Z" style="fill:#263238"></path><path d="M133,278.56A7.49,7.49,0,0,1,135,278a31.62,31.62,0,0,1,10.21-.21,6.93,6.93,0,0,1,2.07.48c0,.16-3.21-.36-7.17-.26S133,278.72,133,278.56Z" style="fill:#263238"></path><path d="M147.21,269.52a20.28,20.28,0,0,0-.74,4.53,20.92,20.92,0,0,0,.81,4.51,7.19,7.19,0,0,1-1.34-4.51A7.09,7.09,0,0,1,147.21,269.52Z" style="fill:#263238"></path><path d="M170.33,329.9s-.13-.09-.35-.32-.53-.54-.89-1a21.76,21.76,0,0,1-2.67-4.19,24.22,24.22,0,0,1-2.21-7,23.71,23.71,0,0,1,9.3-22.49,21.79,21.79,0,0,1,4.28-2.52c.53-.25,1-.38,1.26-.49s.44-.15.45-.13a32.17,32.17,0,0,0-5.76,3.44,24.68,24.68,0,0,0-5,5.26,23,23,0,0,0-4,16.86,24.51,24.51,0,0,0,2.06,7A31.39,31.39,0,0,0,170.33,329.9Z" style="fill:#263238"></path><path d="M171.19,351.35a10,10,0,0,1-2.31,1.92,12.47,12.47,0,0,1-3.22,1.46,8.75,8.75,0,0,1-4.68.09,9.65,9.65,0,0,1-4.67-3.21,31.93,31.93,0,0,0-4.4-4.65c-1.79-1.34-4.16-1.84-6.6-2.21-1.22-.19-2.47-.37-3.73-.69a14.84,14.84,0,0,1-6.79-3.91,16.24,16.24,0,0,1-2.39-3,18.13,18.13,0,0,1-2.54-6.73,18.57,18.57,0,0,1,.22-6.52,21.08,21.08,0,0,1,2-5.32,23,23,0,0,1,5-6.45,18.26,18.26,0,0,1,1.72-1.41,5.29,5.29,0,0,1,.65-.43,4.28,4.28,0,0,1-.58.52,21,21,0,0,0-1.65,1.47,24.31,24.31,0,0,0-4.83,6.47,21.66,21.66,0,0,0-1.86,5.24,18.15,18.15,0,0,0-.16,6.35,17.68,17.68,0,0,0,2.49,6.54,15.9,15.9,0,0,0,2.32,2.89,13.58,13.58,0,0,0,3,2.33,18.72,18.72,0,0,0,7.21,2.14c2.43.37,4.91.89,6.8,2.32a31.38,31.38,0,0,1,4.44,4.75,9.33,9.33,0,0,0,4.44,3.15,8.55,8.55,0,0,0,4.5,0,12.47,12.47,0,0,0,3.19-1.35A22,22,0,0,0,171.19,351.35Z" style="fill:#263238"></path><path d="M180,372.14a2.83,2.83,0,0,1-.9,0,12.28,12.28,0,0,1-2.41-.49,14,14,0,0,1-9.87-11.88,12.2,12.2,0,0,1,0-2.46,2.4,2.4,0,0,1,.17-.89c.09,0-.07,1.28.24,3.3a14.53,14.53,0,0,0,9.62,11.58C178.68,372,180,372,180,372.14Z" style="fill:#263238"></path><path d="M213.89,407.44a4.78,4.78,0,0,1-.78.39c-.51.24-1.29.55-2.3.92a33.91,33.91,0,0,1-22.33-.07,34.46,34.46,0,0,1-13.75-9.15,33.78,33.78,0,0,1-4-5.35l.23.12a24,24,0,0,1-13.54-4,23.16,23.16,0,0,1-7.62-8.43,23.5,23.5,0,0,1-2.44-7.18,16.17,16.17,0,0,1-.23-2,3.71,3.71,0,0,1,0-.7,4,4,0,0,1,.11.7c.05.46.14,1.14.31,2a24.5,24.5,0,0,0,2.56,7,23.06,23.06,0,0,0,7.57,8.21,23.7,23.7,0,0,0,13.28,3.88h.16l.07.13a33.85,33.85,0,0,0,4,5.26,33.66,33.66,0,0,0,26.71,11,35.19,35.19,0,0,0,8.9-1.62c1-.33,1.81-.61,2.33-.82A4.43,4.43,0,0,1,213.89,407.44Z" style="fill:#263238"></path><path d="M131.27,361.45a2.32,2.32,0,0,1-.38-.78,13.74,13.74,0,0,1-.66-2.3,16.27,16.27,0,0,1,4.37-14.56,13.4,13.4,0,0,1,1.8-1.56,2.86,2.86,0,0,1,.75-.45c.06.08-1,.79-2.28,2.26a17.2,17.2,0,0,0-4.26,14.25C130.9,360.27,131.36,361.42,131.27,361.45Z" style="fill:#263238"></path><path d="M130.62,332.75a1.79,1.79,0,0,1-.7.21,9.34,9.34,0,0,1-2,.14,10.73,10.73,0,0,1-9.93-7.43,8.9,8.9,0,0,1-.42-1.94,2,2,0,0,1,0-.73c.1,0,.18,1,.77,2.54a11.13,11.13,0,0,0,9.61,7.19C129.59,332.86,130.61,332.65,130.62,332.75Z" style="fill:#263238"></path><path d="M126.88,275.07c.08.07-1,1.4-2.34,3.76a37.2,37.2,0,0,0-2.11,4.28,42.21,42.21,0,0,0-1.81,5.56,40.32,40.32,0,0,0-.92,5.76,39.4,39.4,0,0,0-.08,4.78c.13,2.72.46,4.39.36,4.4a5.18,5.18,0,0,1-.29-1.15,24.29,24.29,0,0,1-.44-3.23,31.8,31.8,0,0,1,0-4.83,37.61,37.61,0,0,1,.89-5.86,38.53,38.53,0,0,1,1.88-5.62,33.44,33.44,0,0,1,2.24-4.28,25.72,25.72,0,0,1,1.86-2.67A5.49,5.49,0,0,1,126.88,275.07Z" style="fill:#263238"></path><g style="opacity:0.30000000000000004"><path d="M112.24,251.69c-.82-4.78-.61-10.22,2.26-14.12-4.25,3.33-5.43,9-4.59,14.29s3.23,11.1,8.3,13A31.79,31.79,0,0,1,112.24,251.69Z"></path></g><path d="M118,264.52a4.75,4.75,0,0,1-1.07-.61,16.13,16.13,0,0,1-2.54-2.17,17.4,17.4,0,0,1-2.66-20.57,15.35,15.35,0,0,1,1.91-2.75,4.37,4.37,0,0,1,.87-.85,33.11,33.11,0,0,0-2.45,3.78,17.69,17.69,0,0,0,2.61,20.13A32,32,0,0,0,118,264.52Z" style="fill:#263238"></path><path d="M140.61,209.33s-.14,0-.4-.11a8.78,8.78,0,0,1-1.09-.44,13.73,13.73,0,0,1-3.58-2.42,15.85,15.85,0,0,1-3.75-5.2,14.5,14.5,0,0,1,1.58-15,16,16,0,0,1,4.75-4.3,14.14,14.14,0,0,1,4-1.63,11.26,11.26,0,0,1,1.15-.2c.27,0,.41,0,.41,0a18.8,18.8,0,0,0-5.37,2.17,16,16,0,0,0-4.55,4.27A14.25,14.25,0,0,0,132.24,201a16.18,16.18,0,0,0,3.56,5.13A19,19,0,0,0,140.61,209.33Z" style="fill:#263238"></path><path d="M170.82,228.2a23.94,23.94,0,0,0-.4-6.62,20,20,0,0,0-2.77-6.59A18.16,18.16,0,0,0,153,206.5a20,20,0,0,0-7.1.86,23.5,23.5,0,0,0-5.95,2.93s.1-.12.34-.32a9.75,9.75,0,0,1,1.07-.8,17.54,17.54,0,0,1,4.42-2.17,19.65,19.65,0,0,1,7.24-1,18.32,18.32,0,0,1,15,8.71,19.88,19.88,0,0,1,2.73,6.78,17.64,17.64,0,0,1,.31,4.92c0,.58-.14,1-.17,1.33A1.55,1.55,0,0,1,170.82,228.2Z" style="fill:#263238"></path><path d="M194.58,139a1.38,1.38,0,0,1-.11.17l-.34.46c-.31.41-.75,1-1.31,1.82a38.12,38.12,0,0,0-4,7.34A24,24,0,0,0,187,161.34a22.71,22.71,0,0,0,.9,3.66,20.14,20.14,0,0,0,1.7,3.58,15.44,15.44,0,0,0,6.09,5.75l.44.22-.45.22a30,30,0,0,0-8.51,6.23,21.32,21.32,0,0,0-5.39,9.77,17.59,17.59,0,0,0,.73,9.8,13.94,13.94,0,0,0,5.74,7.12l.26.16-.2.23a15.65,15.65,0,0,0-3.73,8,22,22,0,0,0,.28,8.17,26.42,26.42,0,0,0,2.6,6.82,41.11,41.11,0,0,0,3.44,5.27,87.72,87.72,0,0,0,5.86,6.78l1.64,1.75.41.46a1.21,1.21,0,0,1,.14.16s-.06,0-.17-.13l-.44-.43-1.7-1.69a77.85,77.85,0,0,1-6-6.71,41,41,0,0,1-3.52-5.28,26.26,26.26,0,0,1-2.69-6.91,22.2,22.2,0,0,1-.33-8.33,16.11,16.11,0,0,1,3.83-8.28l.05.39a14.41,14.41,0,0,1-6-7.38,18,18,0,0,1-.76-10.09,21.77,21.77,0,0,1,5.53-10,30.21,30.21,0,0,1,8.67-6.31v.44a15.81,15.81,0,0,1-6.25-6,19.76,19.76,0,0,1-1.72-3.68,22.61,22.61,0,0,1-.91-3.74,21.6,21.6,0,0,1,.18-7,27.73,27.73,0,0,1,1.72-5.72,36.55,36.55,0,0,1,4.21-7.32c.58-.79,1-1.38,1.37-1.77l.38-.44C194.53,139.06,194.57,139,194.58,139Z" style="fill:#263238"></path><path d="M194.44,132.11a5.14,5.14,0,0,1-.7-.3c-.46-.21-1.14-.5-2-.81a22.29,22.29,0,0,0-7.9-1.08,30.2,30.2,0,0,0-11.45,2.88A65,65,0,0,0,160,140.48a20.89,20.89,0,0,0-6.3,7.42,11.27,11.27,0,0,0-.65,8.45l.2.55-.52-.26a39,39,0,0,0-7.12-2.8,32.56,32.56,0,0,0-5.8-1c-1.64-.15-2.93-.18-3.81-.19l-1,0a1.3,1.3,0,0,1-.34,0s.12,0,.34,0l1-.05a37.38,37.38,0,0,1,3.83.06,30.88,30.88,0,0,1,5.88.95,38.57,38.57,0,0,1,7.23,2.74l-.32.29a11.72,11.72,0,0,1,.61-8.82,21.36,21.36,0,0,1,6.44-7.63,64.07,64.07,0,0,1,12.49-7.71,30,30,0,0,1,11.64-2.8,21.35,21.35,0,0,1,8,1.26,16.76,16.76,0,0,1,2,.9A4.14,4.14,0,0,1,194.44,132.11Z" style="fill:#263238"></path><path d="M166,122.26c0,.1-1-.11-2.67,0a12.25,12.25,0,0,0-10.22,6.58c-.77,1.44-1,2.45-1.09,2.43s0-.27.09-.73a10,10,0,0,1,.66-1.87,11.75,11.75,0,0,1,10.55-6.79,9.67,9.67,0,0,1,2,.18A1.88,1.88,0,0,1,166,122.26Z" style="fill:#263238"></path><path d="M215.22,109.09a18.34,18.34,0,0,1-4.39.17,18.17,18.17,0,0,1-4.38-.37,18,18,0,0,1,4.39-.16A18.67,18.67,0,0,1,215.22,109.09Z" style="fill:#263238"></path><path d="M213.49,149.07s-.12-.14-.29-.45a11.82,11.82,0,0,1-.68-1.38,17.17,17.17,0,0,1-1.3-5.5,18.1,18.1,0,0,1,1.37-8.25c1.2-3,3.75-5.54,5.06-8.84a7.43,7.43,0,0,0,.22-5c-.47-1.6-1.27-3.06-1.8-4.57a14.17,14.17,0,0,1,2.29-13.38,10.57,10.57,0,0,1,1-1.13,2.88,2.88,0,0,1,.41-.34s-.51.54-1.3,1.59a14.73,14.73,0,0,0-2.35,5,13.91,13.91,0,0,0,.36,8.09c.53,1.45,1.34,2.91,1.84,4.58a7.85,7.85,0,0,1,.36,2.66,8.7,8.7,0,0,1-.58,2.7,24.15,24.15,0,0,1-2.64,4.63,26.34,26.34,0,0,0-2.47,4.21,18.26,18.26,0,0,0-1.45,8,18.62,18.62,0,0,0,1.12,5.45C213.17,148.4,213.54,149.05,213.49,149.07Z" style="fill:#263238"></path><path d="M212.14,198.92a10.11,10.11,0,0,0,.25-1.34,7.33,7.33,0,0,0-.75-3.56c-.62-1.43-1.77-2.94-2.64-4.89a20.38,20.38,0,0,1-1.73-6.65,21.75,21.75,0,0,1,2.49-12.09,18.24,18.24,0,0,1,2.12-3.12,6.06,6.06,0,0,1,1-1,33.82,33.82,0,0,0-2.76,4.28,22.34,22.34,0,0,0-2.29,11.87,20.89,20.89,0,0,0,1.65,6.49c.81,1.89,1.94,3.44,2.54,4.94a7.16,7.16,0,0,1,.6,3.74,3.67,3.67,0,0,1-.27,1C212.23,198.82,212.16,198.93,212.14,198.92Z" style="fill:#263238"></path><path d="M238.93,214.6a3.35,3.35,0,0,1-.49.79,12.59,12.59,0,0,1-1.69,1.86,15.3,15.3,0,0,1-7.37,3.75,15.46,15.46,0,0,1-8.24-.66,13.31,13.31,0,0,1-2.28-1.09,3,3,0,0,1-.74-.54c0-.09,1.15.63,3.14,1.27a15.78,15.78,0,0,0,15.24-3C238.1,215.62,238.85,214.54,238.93,214.6Z" style="fill:#263238"></path><path d="M205.29,249.64s.33.1.91.07a5,5,0,0,0,2.3-.83,57.43,57.43,0,0,0,6.61-5.11,60.47,60.47,0,0,0,5.84-6c1.39-1.63,2.19-2.69,2.25-2.65a3.07,3.07,0,0,1-.46.82c-.33.5-.84,1.22-1.5,2.07a46.75,46.75,0,0,1-5.77,6.15,44.47,44.47,0,0,1-6.78,5,4.69,4.69,0,0,1-2.49.72A1.49,1.49,0,0,1,205.29,249.64Z" style="fill:#263238"></path><path d="M221.11,256.6a5.31,5.31,0,0,1-1.9-1.26,10.57,10.57,0,0,1-3.2-10.18,5.15,5.15,0,0,1,.84-2.13c.08,0-.25.84-.47,2.2a11.33,11.33,0,0,0,3.09,9.84C220.43,256.06,221.16,256.53,221.11,256.6Z" style="fill:#263238"></path><g style="opacity:0.30000000000000004"><path d="M141.16,209.09A20.19,20.19,0,0,1,171,227.15a18.56,18.56,0,0,0-19-23.79c-3.83.24-7.72,1.65-11.41.6a13,13,0,0,1-5.46-3.49c-2.21-2.19-4.07-5.1-3.82-8.21,0,0-2.25,7,2,11.29S141.16,209.09,141.16,209.09Z"></path></g><g style="opacity:0.30000000000000004"><path d="M160.3,136.79a25.92,25.92,0,0,0-7,6.74,13.54,13.54,0,0,0-2.33,9.23,48.12,48.12,0,0,0-16.37-.19c7.07.56,12.12.24,17.88,3.91a19.73,19.73,0,0,1,5.14-14.38,32.67,32.67,0,0,1,13-8.54,98.26,98.26,0,0,1,15.15-4C176.82,128.61,167.7,131.61,160.3,136.79Z"></path></g><g style="opacity:0.30000000000000004"><path d="M215.38,109l-6.3-.41a5.39,5.39,0,0,1-2.67-.65,12.86,12.86,0,0,1,5.22-.67,1.53,1.53,0,0,0,1.91-1.26,13.16,13.16,0,0,1,4.49-5.37,8.55,8.55,0,0,1-1.51,4.13,6,6,0,0,0-1,4.23"></path></g><g style="opacity:0.30000000000000004"><path d="M215.82,243.73a23.38,23.38,0,0,1-14.35,6.53,12.53,12.53,0,0,0,10.06.17,29.87,29.87,0,0,0,4.92,5.77c1.94,1.62,5.34,1.78,7.87,1.61-2.22-1.32-5.46-1.76-6.73-4a14.91,14.91,0,0,1-1.44-6c-.16-1.67-.25-3.58.94-4.78"></path></g><g style="opacity:0.30000000000000004"><path d="M134.07,278a8.07,8.07,0,0,1,4.38-2.38,22.55,22.55,0,0,1,5.06-.31,5.84,5.84,0,0,1,2.36-4.5.49.49,0,0,1,.38-.13c.31.05.28.5.19.8a8,8,0,0,0,.46,5.81c.13.25.25.61,0,.79a.56.56,0,0,1-.34.08,59.71,59.71,0,0,1-6.26-.36,16,16,0,0,0-6.21.52"></path></g><g style="opacity:0.30000000000000004"><path d="M218.82,338.28c-3.31-3.63-1.34-3.72-5-6.92-9-7.78-10.53-10.27-14.82-16.12-1.27-1.73-1-4.06-1.55-6.05-.63-2.43-.52-5.81-1.81-7.43-4.06-5.4-8.32-9.68-13.26-10-2.81-1.8-8.26-3.2-11.14-3.58a54,54,0,0,1-12.56-3c-4.71-1.67-8.35-3.24-11.53-7.1l-.65.27c3.15,6.14,9.49,10.13,16.12,12a61.76,61.76,0,0,0,15.94,1.88,12.66,12.66,0,0,0-2,.84c-15.43,11.4-14.79,23.6-8.3,32.9,5.63,8.07,9.07,18.15,19.2,22.38,6.89,2.87,13.81,5.68,20.71,8.52-1.35-2.41-3.2-4.79-5.64-6-4.48-2.17-9.42-3.39-13.95-5.46-6.38-2.92-11.59-6.92-10.29-15.51-13-6.5-15.34-22.81-4.82-32.29,1.73-1.55,6.52-2.33,7.94-1.14,4.76,4,10,8.4,12.54,13.83,4.23,9,8.37,17.5,16.54,23.67,2.76,2.09,4.51,5.49,6.86,8.18a23.7,23.7,0,0,0,3.32,2.7C221.28,344.28,218.19,338.88,218.82,338.28Z"></path></g><g style="opacity:0.30000000000000004"><path d="M200.52,281.33c-7.77-4.28-12.43-12.95-16.14-20.26,1.9,10.3,8.22,20.28,17.58,25a34.63,34.63,0,0,0,30.32.16C221.44,286.46,210,286.55,200.52,281.33Z"></path></g><g style="opacity:0.2"><path d="M157,181.15a9.75,9.75,0,0,0-4.35-1.15,7.26,7.26,0,0,0-2.49.32,46.26,46.26,0,0,0-8.51,3.25,17.15,17.15,0,0,0-7.34,6.94c-.82,1.57-1.26,3.58-.25,5a4,4,0,0,0,3.64,1.46,9.36,9.36,0,0,0,3.81-1.46c4.11-2.42,7.73-5.79,12.25-7.3,2-.69,4.61-1.31,5-3.54A3.45,3.45,0,0,0,157,181.15Z" style="fill:#fff"></path></g><g style="opacity:0.2"><path d="M182.19,135.07a9.75,9.75,0,0,0-4.34-1.15,7.29,7.29,0,0,0-2.5.32,46.81,46.81,0,0,0-8.51,3.25,17.26,17.26,0,0,0-7.34,6.94c-.81,1.57-1.26,3.58-.25,5a4,4,0,0,0,3.65,1.46,9.41,9.41,0,0,0,3.81-1.46c4.1-2.42,7.72-5.79,12.24-7.3,2.05-.69,4.61-1.31,5-3.54A3.45,3.45,0,0,0,182.19,135.07Z" style="fill:#fff"></path></g><g style="opacity:0.2"><path d="M235.37,94.2c-1.09-2.17-2-4.84-4-6.08A28.53,28.53,0,0,0,220,84.42h0c-8.73-1.3-17.31,3.1-24.41,8.36S182.07,104.37,174,108a13.92,13.92,0,0,0-3.19,1.69,3.8,3.8,0,0,0-1.59,3.1c.16,2.1,2.55,3.26,4.64,3.57,7,1.06,13.87-2.31,19.63-6.39s11.05-9,17.54-11.77c3.21-1.36,7.08-2.11,10-.29,2,1.25,3.31,3.52,5.39,4.72a6.39,6.39,0,0,0,8.91-8.38Z" style="fill:#fff"></path></g><path d="M116.22,197.59a9.87,9.87,0,0,1,.16-1.61c.12-1,.38-2.52.78-4.34a59.71,59.71,0,0,1,1.74-6.3,69.26,69.26,0,0,1,3-7.43,70.49,70.49,0,0,1,3.9-7,62.77,62.77,0,0,1,3.82-5.31c1.16-1.45,2.16-2.58,2.89-3.32a10.08,10.08,0,0,1,1.15-1.13,9.51,9.51,0,0,1-1,1.26c-.68.79-1.62,2-2.75,3.42s-2.39,3.28-3.69,5.35a76.62,76.62,0,0,0-3.84,7,75.59,75.59,0,0,0-3,7.36c-.79,2.31-1.41,4.43-1.84,6.23s-.76,3.26-.94,4.28A8.45,8.45,0,0,1,116.22,197.59Z" style="fill:#fff"></path><path d="M137.92,200.21a2.46,2.46,0,0,1-.71-.5,8.26,8.26,0,0,1-1.52-1.79,9.41,9.41,0,0,1,3.46-13.52,8.42,8.42,0,0,1,2.19-.84,2.53,2.53,0,0,1,.86-.1,20.06,20.06,0,0,0-2.87,1.27,9.39,9.39,0,0,0-3.32,13A17.78,17.78,0,0,0,137.92,200.21Z" style="fill:#fff"></path><path d="M187.76,198.37a4.54,4.54,0,0,1-.63-1.85,10.68,10.68,0,0,1,2.51-8.86,4.38,4.38,0,0,1,1.5-1.24,18.11,18.11,0,0,1-1.21,1.48,12.12,12.12,0,0,0-2.43,8.57A17.86,17.86,0,0,1,187.76,198.37Z" style="fill:#fff"></path><path d="M141.83,139.57a12.48,12.48,0,0,0-1.54,3,12.38,12.38,0,0,0-.22,3.33c-.06,0-.27-.32-.4-1a5.34,5.34,0,0,1,.11-2.51,5.4,5.4,0,0,1,1.21-2.21C141.43,139.71,141.79,139.51,141.83,139.57Z" style="fill:#fff"></path><path d="M117.67,254.41a6.36,6.36,0,0,1-1.24-3.59,6.25,6.25,0,0,1,.51-3.76c.15,0-.2,1.68,0,3.71S117.82,254.35,117.67,254.41Z" style="fill:#fff"></path><path d="M109.37,301.27s-.19-.18-.45-.56A10.78,10.78,0,0,1,108,299a15.84,15.84,0,0,1,0-12.64,11,11,0,0,1,.93-1.72c.26-.38.42-.58.45-.56s-.45.91-1,2.43a17.75,17.75,0,0,0-1.15,6.17,17.94,17.94,0,0,0,1.11,6.18C108.92,300.35,109.45,301.22,109.37,301.27Z" style="fill:#fff"></path><path d="M138.67,333.91s-.23-.11-.57-.42a8.56,8.56,0,0,1-1.24-1.46,10,10,0,0,1,.46-11.92,8.16,8.16,0,0,1,1.36-1.36c.36-.28.58-.4.6-.37s-.74.67-1.66,1.95a10.3,10.3,0,0,0-.45,11.5C138,333.18,138.74,333.84,138.67,333.91Z" style="fill:#fff"></path><path d="M136.59,357.37a8.5,8.5,0,0,1,2.41-7.72,39.55,39.55,0,0,0-1.67,3.71A37.24,37.24,0,0,0,136.59,357.37Z" style="fill:#fff"></path><path d="M176.28,322.74a3.12,3.12,0,0,1-.89-.34,10.49,10.49,0,0,1-2.16-1.43,11.71,11.71,0,0,1-2.2-15.59,10.17,10.17,0,0,1,1.69-2,2.73,2.73,0,0,1,.76-.57,23.66,23.66,0,0,0-2.13,2.74,11.82,11.82,0,0,0,2.13,15.11A25.18,25.18,0,0,0,176.28,322.74Z" style="fill:#fff"></path><path d="M170.21,389.86a4.41,4.41,0,0,1-1-.16,19,19,0,0,1-2.61-.79,26,26,0,0,1-3.66-1.73,27.61,27.61,0,0,1-4-2.89,27,27,0,0,1-3.41-3.6,24.56,24.56,0,0,1-2.22-3.39,18.36,18.36,0,0,1-1.14-2.47,3.24,3.24,0,0,1-.29-1c.09,0,.6,1.29,1.76,3.25a29,29,0,0,0,2.27,3.27,30.51,30.51,0,0,0,3.38,3.5,31.46,31.46,0,0,0,3.93,2.87,28.33,28.33,0,0,0,3.55,1.8C168.85,389.43,170.23,389.76,170.21,389.86Z" style="fill:#fff"></path><path d="M160.07,279.21A10.74,10.74,0,0,1,155,275.9a10.62,10.62,0,0,1-2.92-5.29,26.24,26.24,0,0,0,3.31,4.93A26.53,26.53,0,0,0,160.07,279.21Z" style="fill:#fff"></path><path d="M196.1,229.9a17,17,0,0,1-7-9.1c.15-.07,1.18,2.33,3.13,4.84S196.2,229.78,196.1,229.9Z" style="fill:#fff"></path><g style="opacity:0.2"><path d="M120.84,228.13a3.68,3.68,0,0,1,4.26.44,18.85,18.85,0,0,1,3,3.5c4.12,5.27,4.45,10.59,11,12s13.38,2.14,19.24,5.35c1.47.81,3,1.91,3.34,3.54a4.45,4.45,0,0,1-2.45,4.64,9.86,9.86,0,0,1-5.51.8c-6.5-.53-12.54-3.4-18.4-6.23-8.06-3.88-11.69-10.23-15.11-18.49C120.16,233.65,118.08,230.14,120.84,228.13Z" style="fill:#fff"></path></g><g style="opacity:0.2"><path d="M174.08,260.61l-1.37-.49a4.19,4.19,0,1,0,4.34,5.3A3.91,3.91,0,0,0,174.08,260.61Z" style="fill:#fff"></path></g></g></svg>
