<svg id="Layer_1" enable-background="new 0 0 512 512" height="512" viewBox="0 0 512 512" width="512" xmlns="http://www.w3.org/2000/svg" xmlns:xlink="http://www.w3.org/1999/xlink"><linearGradient id="SVGID_1_" gradientUnits="userSpaceOnUse" x1=".003" x2="511.997" y1="256" y2="256"><stop offset="0" stop-color="#f109fe"/><stop offset="1" stop-color="#37c1d1"/></linearGradient><path d="m490.11 146.51h-305.57c-12.07 0-21.88 9.82-21.88 21.88v175.21c0 12.07 9.82 21.88 21.88 21.88h305.57c12.07 0 21.88-9.82 21.88-21.88v-175.2c.01-12.07-9.81-21.89-21.88-21.89zm-108.11 102.44c-.24.18-.46.38-.68.59l-42.07 36.2c-1.13.97-2.7.98-3.82.01l-143.24-123.25h290.27zm-104.86 7.74-98.5 84.79v-169.55zm12.26 10.55 35.59 30.63c3.56 3.07 7.94 4.61 12.32 4.61s8.76-1.53 12.34-4.6l37.2-32.02 30.2 25.98 66.98 57.66h-290.19zm138.09 12.48-28.38-24.4 96.89-83.38v166.76zm-265.51-125.21c0 4.42-3.58 7.99-7.99 7.99h-88.73c-4.42 0-7.99-3.58-7.99-7.99s3.58-7.99 7.99-7.99h88.72c4.42-.01 8 3.57 8 7.99zm0 59.18c0 4.42-3.58 7.99-7.99 7.99h-145.99c-4.42 0-7.99-3.58-7.99-7.99s3.57-7.99 7.99-7.99h145.98c4.42 0 8 3.58 8 7.99zm0 59.19c0 4.42-3.58 7.99-7.99 7.99h-55.65c-4.42 0-7.99-3.58-7.99-7.99s3.58-7.99 7.99-7.99h55.64c4.42 0 8 3.58 8 7.99z" fill="url(#SVGID_1_)"/></svg>