<?xml version="1.0" encoding="UTF-8"?>
<!-- Generator: Adobe Illustrator 24.2.3, SVG Export Plug-In . SVG Version: 6.00 Build 0)  -->
<svg xmlns="http://www.w3.org/2000/svg" xmlns:xlink="http://www.w3.org/1999/xlink" version="1.1" id="Capa_1" x="0px" y="0px" viewBox="0 0 512 512" style="enable-background:new 0 0 512 512;" xml:space="preserve" width="512" height="512">
<g>
	<g>
		<path style="fill:#33CCCC;" d="M130.271,282.631v-57.54c0-42.027,34.192-76.22,76.221-76.22h99.016    c42.028,0,76.221,34.192,76.221,76.22v57.54h22V171.45c0-64.817-35.716-123.672-93.21-153.596l-16.383-8.528    c-23.879-12.429-52.392-12.43-76.272,0.001l-16.382,8.527c-57.488,29.926-93.21,88.782-93.21,153.596v111.181H130.271z     M211.639,37.369C211.64,37.369,211.64,37.368,211.639,37.369l16.382-8.527c17.521-9.12,38.438-9.119,55.958-0.001l16.383,8.528    c47.646,24.798,78.137,72.361,81.107,125.526c-18.028-21.977-45.384-36.024-75.961-36.024h-99.016    c-30.577,0-57.933,14.047-75.961,36.024C133.501,109.73,163.993,62.167,211.639,37.369z"/>
		<path style="fill:#33CCCC;" d="M445.018,325.911v22.058C470.24,350.491,490,371.836,490,397.713v92.283h-44.982v11    c0,6.075-4.925,11-11,11H501c6.075,0,11-4.925,11-11V397.713C512,359.701,482.383,328.496,445.018,325.911z"/>
		<path style="fill:#33CCCC;" d="M66.982,500.996v-11H22v-92.283c0-25.876,19.76-47.221,44.982-49.744v-22.058    C29.617,328.496,0,359.701,0,397.713v103.283c0,6.075,4.925,11,11,11h66.982C71.907,511.996,66.982,507.071,66.982,500.996z"/>
	</g>
	<path d="M434.018,282.631H325.265c10.198-18.135,15.83-40.045,15.83-62.783c0-17.634,0.227-42.584,0.437-61.905   c-6.762-3.642-14.134-6.291-21.919-7.756c0,0-0.519,49.667-0.519,69.661c0,23.91-7.311,46.493-20.19,62.783h-85.812   c-12.879-16.291-20.19-38.873-20.19-62.783c0-20.029-0.52-69.662-0.52-69.662c-7.784,1.465-15.156,4.114-21.918,7.757   c0.21,19.321,0.437,44.271,0.437,61.905c0,22.738,5.632,44.648,15.83,62.783H77.982c-6.075,0-11,4.925-11,11v207.365   c0,6.075,4.925,11,11,11h356.035c6.075,0,11-4.925,11-11V293.631C445.018,287.555,440.093,282.631,434.018,282.631z    M423.018,489.996H88.982V304.631h334.035V489.996z"/>
</g>















</svg>
