<svg xmlns="http://www.w3.org/2000/svg" xmlns:xlink="http://www.w3.org/1999/xlink" width="500" zoomAndPan="magnify" viewBox="0 0 375 374.999991" height="500" preserveAspectRatio="xMidYMid meet" version="1.0"><defs><g/><clipPath id="e6e1241eff"><path d="M 159 103.535156 L 287 103.535156 L 287 141 L 159 141 Z M 159 103.535156 " clip-rule="nonzero"/></clipPath><clipPath id="5192535fc6"><path d="M 51.140625 155 L 206 155 L 206 182 L 51.140625 182 Z M 51.140625 155 " clip-rule="nonzero"/></clipPath><clipPath id="af8c90b7f1"><path d="M 88 167 L 216 167 L 216 204.785156 L 88 204.785156 Z M 88 167 " clip-rule="nonzero"/></clipPath></defs><path fill="#000000" d="M 157.613281 139.398438 C 158.699219 139.398438 159.582031 140.277344 159.582031 141.367188 C 159.582031 142.453125 158.699219 143.335938 157.613281 143.335938 C 156.523438 143.335938 155.644531 142.453125 155.644531 141.367188 C 155.644531 140.277344 156.523438 139.398438 157.613281 139.398438 Z M 287.804688 176.917969 C 288.890625 176.917969 289.773438 177.796875 289.773438 178.886719 C 289.773438 179.972656 288.890625 180.855469 287.804688 180.855469 C 286.714844 180.855469 285.835938 179.972656 285.835938 178.886719 C 285.835938 177.796875 286.714844 176.917969 287.804688 176.917969 Z M 171.261719 196.464844 C 170.175781 196.464844 169.292969 195.582031 169.292969 194.492188 C 169.292969 193.40625 170.175781 192.523438 171.261719 192.523438 C 172.351562 192.523438 173.230469 193.40625 173.230469 194.492188 C 173.230469 195.582031 172.351562 196.464844 171.261719 196.464844 Z M 157.613281 144.453125 C 159.035156 144.453125 160.230469 143.488281 160.589844 142.183594 L 207.476562 142.183594 L 243.363281 178.070312 L 232.171875 178.070312 L 216.5625 193.675781 L 174.238281 193.675781 C 173.878906 192.371094 172.683594 191.40625 171.261719 191.40625 C 169.558594 191.40625 168.175781 192.789062 168.175781 194.492188 C 168.175781 196.199219 169.558594 197.582031 171.261719 197.582031 C 172.628906 197.582031 173.785156 196.691406 174.191406 195.460938 L 217.300781 195.460938 L 232.910156 179.855469 L 284.875 179.855469 C 285.277344 181.082031 286.4375 181.972656 287.804688 181.972656 C 289.507812 181.972656 290.890625 180.589844 290.890625 178.886719 C 290.890625 177.179688 289.507812 175.800781 287.804688 175.800781 C 286.382812 175.800781 285.1875 176.761719 284.828125 178.070312 L 245.886719 178.070312 L 208.214844 140.398438 L 160.542969 140.398438 C 160.136719 139.167969 158.980469 138.28125 157.613281 138.28125 C 155.910156 138.28125 154.527344 139.660156 154.527344 141.367188 C 154.527344 143.070312 155.910156 144.453125 157.613281 144.453125 " fill-opacity="1" fill-rule="nonzero"/><path fill="#000000" d="M 232.128906 131.09375 L 180.753906 131.09375 C 180.082031 128.71875 177.902344 126.976562 175.3125 126.976562 C 172.191406 126.976562 169.660156 129.507812 169.660156 132.628906 C 169.660156 135.75 172.191406 138.28125 175.3125 138.28125 C 177.71875 138.28125 179.769531 136.777344 180.585938 134.660156 L 230.652344 134.660156 L 245.425781 149.4375 L 312.824219 149.4375 C 313.640625 151.550781 315.691406 153.054688 318.097656 153.054688 C 321.21875 153.054688 323.75 150.523438 323.75 147.402344 C 323.75 144.28125 321.21875 141.75 318.097656 141.75 C 315.507812 141.75 313.328125 143.492188 312.660156 145.867188 L 246.90625 145.867188 L 232.128906 131.09375 " fill-opacity="1" fill-rule="nonzero"/><g clip-path="url(#e6e1241eff)"><path fill="#000000" d="M 162.183594 104.652344 C 163.269531 104.652344 164.152344 105.535156 164.152344 106.625 C 164.152344 107.710938 163.269531 108.59375 162.183594 108.59375 C 161.09375 108.59375 160.214844 107.710938 160.214844 106.625 C 160.214844 105.535156 161.09375 104.652344 162.183594 104.652344 Z M 283.808594 135.730469 C 284.894531 135.730469 285.777344 136.609375 285.777344 137.699219 C 285.777344 138.789062 284.894531 139.667969 283.808594 139.667969 C 282.71875 139.667969 281.835938 138.789062 281.835938 137.699219 C 281.835938 136.609375 282.71875 135.730469 283.808594 135.730469 Z M 191.429688 124.222656 C 190.339844 124.222656 189.460938 123.339844 189.460938 122.25 C 189.460938 121.164062 190.339844 120.28125 191.429688 120.28125 C 192.515625 120.28125 193.398438 121.164062 193.398438 122.25 C 193.398438 123.339844 192.515625 124.222656 191.429688 124.222656 Z M 162.183594 109.710938 C 163.605469 109.710938 164.800781 108.75 165.160156 107.441406 L 207.484375 107.441406 L 221.328125 121.285156 L 194.359375 121.285156 C 193.953125 120.050781 192.796875 119.164062 191.429688 119.164062 C 189.726562 119.164062 188.34375 120.546875 188.34375 122.25 C 188.34375 123.957031 189.726562 125.335938 191.429688 125.335938 C 192.851562 125.335938 194.046875 124.375 194.40625 123.066406 L 236.730469 123.066406 L 252.335938 138.675781 L 280.878906 138.675781 C 281.289062 139.902344 282.445312 140.785156 283.808594 140.785156 C 285.511719 140.785156 286.894531 139.402344 286.894531 137.699219 C 286.894531 135.996094 285.511719 134.613281 283.808594 134.613281 C 282.382812 134.613281 281.183594 135.578125 280.828125 136.890625 L 253.078125 136.890625 L 237.46875 121.285156 L 236.738281 121.285156 L 236.738281 121.265625 L 223.832031 121.265625 L 208.222656 105.65625 L 165.113281 105.65625 C 164.707031 104.425781 163.550781 103.539062 162.183594 103.539062 C 160.476562 103.539062 159.097656 104.917969 159.097656 106.625 C 159.097656 108.328125 160.476562 109.710938 162.183594 109.710938 " fill-opacity="1" fill-rule="nonzero"/></g><path fill="#000000" d="M 267.183594 162.992188 L 245.390625 162.992188 L 232.160156 149.761719 L 218.839844 149.761719 L 220.625 151.542969 L 231.421875 151.542969 L 244.652344 164.777344 L 267.210938 164.777344 C 267.609375 166.019531 268.777344 166.921875 270.152344 166.921875 C 271.855469 166.921875 273.238281 165.539062 273.238281 163.835938 C 273.238281 162.132812 271.855469 160.75 270.152344 160.75 C 268.742188 160.75 267.550781 161.699219 267.183594 162.992188 " fill-opacity="1" fill-rule="nonzero"/><path fill="#000000" d="M 215.578125 151.542969 L 213.792969 149.761719 L 176.984375 149.761719 C 176.617188 148.46875 175.429688 147.519531 174.015625 147.519531 C 172.3125 147.519531 170.929688 148.902344 170.929688 150.605469 C 170.929688 152.308594 172.3125 153.691406 174.015625 153.691406 C 175.394531 153.691406 176.558594 152.789062 176.957031 151.542969 L 215.578125 151.542969 " fill-opacity="1" fill-rule="nonzero"/><path fill="#000000" d="M 217.375 169.101562 C 216.285156 169.101562 215.40625 168.21875 215.40625 167.128906 C 215.40625 166.042969 216.285156 165.160156 217.375 165.160156 C 218.464844 165.160156 219.34375 166.042969 219.34375 167.128906 C 219.34375 168.21875 218.464844 169.101562 217.375 169.101562 Z M 87.183594 131.578125 C 86.097656 131.578125 85.214844 130.699219 85.214844 129.609375 C 85.214844 128.523438 86.097656 127.640625 87.183594 127.640625 C 88.273438 127.640625 89.15625 128.523438 89.15625 129.609375 C 89.15625 130.699219 88.273438 131.578125 87.183594 131.578125 Z M 203.726562 112.03125 C 204.8125 112.03125 205.695312 112.914062 205.695312 114.003906 C 205.695312 115.089844 204.8125 115.972656 203.726562 115.972656 C 202.636719 115.972656 201.757812 115.089844 201.757812 114.003906 C 201.757812 112.914062 202.636719 112.03125 203.726562 112.03125 Z M 217.375 164.042969 C 215.953125 164.042969 214.757812 165.003906 214.398438 166.3125 L 167.511719 166.3125 L 131.625 130.425781 L 142.816406 130.425781 L 158.425781 114.816406 L 200.75 114.816406 C 201.109375 116.125 202.304688 117.085938 203.726562 117.085938 C 205.429688 117.085938 206.8125 115.707031 206.8125 114.003906 C 206.8125 112.296875 205.429688 110.917969 203.726562 110.917969 C 202.359375 110.917969 201.203125 111.804688 200.796875 113.035156 L 157.6875 113.035156 L 142.078125 128.640625 L 90.117188 128.640625 C 89.710938 127.414062 88.550781 126.523438 87.183594 126.523438 C 85.480469 126.523438 84.097656 127.90625 84.097656 129.609375 C 84.097656 131.316406 85.480469 132.695312 87.183594 132.695312 C 88.605469 132.695312 89.804688 131.734375 90.160156 130.425781 L 129.101562 130.425781 L 166.773438 168.097656 L 214.445312 168.097656 C 214.851562 169.328125 216.007812 170.214844 217.375 170.214844 C 219.078125 170.214844 220.460938 168.835938 220.460938 167.128906 C 220.460938 165.425781 219.078125 164.042969 217.375 164.042969 " fill-opacity="1" fill-rule="nonzero"/><g clip-path="url(#5192535fc6)"><path fill="#000000" d="M 142.859375 177.402344 L 194.238281 177.402344 C 194.90625 179.777344 197.085938 181.519531 199.675781 181.519531 C 202.796875 181.519531 205.328125 178.988281 205.328125 175.867188 C 205.328125 172.746094 202.796875 170.214844 199.675781 170.214844 C 197.269531 170.214844 195.21875 171.71875 194.402344 173.835938 L 144.335938 173.835938 L 129.5625 159.058594 L 62.164062 159.058594 C 61.347656 156.945312 59.296875 155.441406 56.890625 155.441406 C 53.769531 155.441406 51.238281 157.972656 51.238281 161.09375 C 51.238281 164.214844 53.769531 166.746094 56.890625 166.746094 C 59.480469 166.746094 61.660156 165.003906 62.328125 162.628906 L 128.085938 162.628906 L 142.859375 177.402344 " fill-opacity="1" fill-rule="nonzero"/></g><g clip-path="url(#af8c90b7f1)"><path fill="#000000" d="M 212.804688 203.84375 C 211.71875 203.84375 210.835938 202.960938 210.835938 201.871094 C 210.835938 200.785156 211.71875 199.902344 212.804688 199.902344 C 213.894531 199.902344 214.777344 200.785156 214.777344 201.871094 C 214.777344 202.960938 213.894531 203.84375 212.804688 203.84375 Z M 91.183594 172.765625 C 90.09375 172.765625 89.210938 171.882812 89.210938 170.796875 C 89.210938 169.707031 90.09375 168.824219 91.183594 168.824219 C 92.269531 168.824219 93.152344 169.707031 93.152344 170.796875 C 93.152344 171.882812 92.269531 172.765625 91.183594 172.765625 Z M 183.558594 184.273438 C 184.648438 184.273438 185.527344 185.15625 185.527344 186.246094 C 185.527344 187.332031 184.648438 188.214844 183.558594 188.214844 C 182.472656 188.214844 181.589844 187.332031 181.589844 186.246094 C 181.589844 185.15625 182.472656 184.273438 183.558594 184.273438 Z M 212.804688 198.785156 C 211.386719 198.785156 210.1875 199.746094 209.828125 201.054688 L 167.507812 201.054688 L 153.664062 187.210938 L 180.628906 187.210938 C 181.035156 188.441406 182.191406 189.332031 183.558594 189.332031 C 185.265625 189.332031 186.644531 187.949219 186.644531 186.246094 C 186.644531 184.539062 185.265625 183.15625 183.558594 183.15625 C 182.136719 183.15625 180.941406 184.121094 180.582031 185.429688 L 138.257812 185.429688 L 122.652344 169.820312 L 94.109375 169.820312 C 93.703125 168.59375 92.546875 167.710938 91.183594 167.710938 C 89.476562 167.710938 88.097656 169.09375 88.097656 170.796875 C 88.097656 172.5 89.476562 173.882812 91.183594 173.882812 C 92.605469 173.882812 93.804688 172.917969 94.160156 171.605469 L 121.910156 171.605469 L 137.519531 187.210938 L 138.25 187.210938 L 138.253906 187.230469 L 151.160156 187.230469 L 166.765625 202.839844 L 209.875 202.839844 C 210.28125 204.070312 211.441406 204.957031 212.804688 204.957031 C 214.511719 204.957031 215.890625 203.574219 215.890625 201.871094 C 215.890625 200.167969 214.511719 198.785156 212.804688 198.785156 " fill-opacity="1" fill-rule="nonzero"/></g><path fill="#000000" d="M 107.804688 145.503906 L 129.597656 145.503906 L 142.828125 158.734375 L 156.148438 158.734375 L 154.367188 156.949219 L 143.566406 156.949219 L 130.335938 143.71875 L 107.777344 143.71875 C 107.378906 142.476562 106.210938 141.574219 104.835938 141.574219 C 103.132812 141.574219 101.75 142.957031 101.75 144.660156 C 101.75 146.363281 103.132812 147.746094 104.835938 147.746094 C 106.246094 147.746094 107.4375 146.796875 107.804688 145.503906 " fill-opacity="1" fill-rule="nonzero"/><path fill="#000000" d="M 159.410156 156.949219 L 161.195312 158.734375 L 198.003906 158.734375 C 198.371094 160.027344 199.5625 160.976562 200.972656 160.976562 C 202.675781 160.976562 204.058594 159.59375 204.058594 157.890625 C 204.058594 156.1875 202.675781 154.804688 200.972656 154.804688 C 199.597656 154.804688 198.429688 155.707031 198.03125 156.949219 L 159.410156 156.949219 " fill-opacity="1" fill-rule="nonzero"/><g fill="#000000" fill-opacity="1"><g transform="translate(62.29662, 236.082357)"><g><path d="M 4.71875 0.1875 C 3.570312 0.1875 2.617188 -0.0234375 1.859375 -0.453125 C 1.109375 -0.890625 0.5625 -1.472656 0.21875 -2.203125 L 1.71875 -4.03125 L 1.953125 -4.03125 C 2.203125 -3.4375 2.550781 -2.96875 3 -2.625 C 3.457031 -2.289062 3.984375 -2.125 4.578125 -2.125 C 5.242188 -2.125 5.738281 -2.316406 6.0625 -2.703125 C 6.394531 -3.097656 6.5625 -3.734375 6.5625 -4.609375 L 6.5625 -13.484375 L 9.21875 -13.484375 L 9.21875 -4.5625 C 9.21875 -2.9375 8.84375 -1.738281 8.09375 -0.96875 C 7.351562 -0.195312 6.226562 0.1875 4.71875 0.1875 Z M 4.71875 0.1875 "/></g></g></g><g fill="#000000" fill-opacity="1"><g transform="translate(88.29533, 236.082357)"><g><path d="M 7.15625 0.1875 C 5.289062 0.1875 3.910156 -0.25 3.015625 -1.125 C 2.117188 -2.007812 1.671875 -3.320312 1.671875 -5.0625 L 1.671875 -13.484375 L 4.28125 -13.484375 L 4.28125 -5.078125 C 4.28125 -4.085938 4.515625 -3.347656 4.984375 -2.859375 C 5.460938 -2.367188 6.1875 -2.125 7.15625 -2.125 C 9.0625 -2.125 10.015625 -3.109375 10.015625 -5.078125 L 10.015625 -13.484375 L 12.625 -13.484375 L 12.625 -5.0625 C 12.625 -3.320312 12.175781 -2.007812 11.28125 -1.125 C 10.382812 -0.25 9.007812 0.1875 7.15625 0.1875 Z M 7.15625 0.1875 "/></g></g></g><g fill="#000000" fill-opacity="1"><g transform="translate(117.706673, 236.082357)"><g><path d="M 1.75 0 L 1.75 -13.484375 L 7.171875 -13.484375 C 8.566406 -13.484375 9.617188 -13.160156 10.328125 -12.515625 C 11.035156 -11.878906 11.390625 -10.992188 11.390625 -9.859375 C 11.390625 -9.046875 11.179688 -8.375 10.765625 -7.84375 C 10.347656 -7.320312 9.726562 -6.925781 8.90625 -6.65625 L 8.90625 -6.453125 C 9.332031 -6.273438 9.675781 -6.003906 9.9375 -5.640625 C 10.195312 -5.273438 10.445312 -4.734375 10.6875 -4.015625 L 12.03125 0 L 9.28125 0 L 7.96875 -4.03125 C 7.832031 -4.4375 7.679688 -4.75 7.515625 -4.96875 C 7.347656 -5.195312 7.128906 -5.363281 6.859375 -5.46875 C 6.597656 -5.570312 6.257812 -5.625 5.84375 -5.625 L 4.421875 -5.625 L 4.421875 0 Z M 6.84375 -7.734375 C 8.132812 -7.734375 8.78125 -8.332031 8.78125 -9.53125 C 8.78125 -10.757812 8.132812 -11.375 6.84375 -11.375 L 4.421875 -11.375 L 4.421875 -7.734375 Z M 6.84375 -7.734375 "/></g></g></g><g fill="#000000" fill-opacity="1"><g transform="translate(145.430156, 236.082357)"><g><path d="M 4.421875 0 L 1.75 0 L 1.75 -13.484375 L 4.421875 -13.484375 Z M 4.421875 0 "/></g></g></g><g fill="#000000" fill-opacity="1"><g transform="translate(166.724962, 236.082357)"><g/></g></g><g fill="#000000" fill-opacity="1"><g transform="translate(186.295011, 236.082357)"><g><path d="M 6.609375 -13.484375 C 8.796875 -13.484375 10.460938 -12.914062 11.609375 -11.78125 C 12.765625 -10.65625 13.34375 -8.976562 13.34375 -6.75 C 13.34375 -4.519531 12.765625 -2.835938 11.609375 -1.703125 C 10.460938 -0.566406 8.796875 0 6.609375 0 L 1.75 0 L 1.75 -13.484375 Z M 6.453125 -2.234375 C 7.835938 -2.234375 8.875 -2.585938 9.5625 -3.296875 C 10.25 -4.015625 10.59375 -5.164062 10.59375 -6.75 C 10.59375 -8.320312 10.25 -9.460938 9.5625 -10.171875 C 8.875 -10.890625 7.835938 -11.25 6.453125 -11.25 L 4.421875 -11.25 L 4.421875 -2.234375 Z M 6.453125 -2.234375 "/></g></g></g><g fill="#000000" fill-opacity="1"><g transform="translate(215.817031, 236.082357)"><g><path d="M 4.421875 -5.921875 L 4.421875 -2.234375 L 10.859375 -2.234375 L 10.859375 0 L 1.75 0 L 1.75 -13.484375 L 10.703125 -13.484375 L 10.703125 -11.25 L 4.421875 -11.25 L 4.421875 -8.09375 L 9.921875 -8.09375 L 9.921875 -5.921875 Z M 4.421875 -5.921875 "/></g></g></g><g fill="#000000" fill-opacity="1"><g transform="translate(242.52594, 236.082357)"><g><path d="M 6.609375 -13.484375 C 8.796875 -13.484375 10.460938 -12.914062 11.609375 -11.78125 C 12.765625 -10.65625 13.34375 -8.976562 13.34375 -6.75 C 13.34375 -4.519531 12.765625 -2.835938 11.609375 -1.703125 C 10.460938 -0.566406 8.796875 0 6.609375 0 L 1.75 0 L 1.75 -13.484375 Z M 6.453125 -2.234375 C 7.835938 -2.234375 8.875 -2.585938 9.5625 -3.296875 C 10.25 -4.015625 10.59375 -5.164062 10.59375 -6.75 C 10.59375 -8.320312 10.25 -9.460938 9.5625 -10.171875 C 8.875 -10.890625 7.835938 -11.25 6.453125 -11.25 L 4.421875 -11.25 L 4.421875 -2.234375 Z M 6.453125 -2.234375 "/></g></g></g><g fill="#000000" fill-opacity="1"><g transform="translate(272.04796, 236.082357)"><g><path d="M 4.421875 -5.921875 L 4.421875 -2.234375 L 10.859375 -2.234375 L 10.859375 0 L 1.75 0 L 1.75 -13.484375 L 10.703125 -13.484375 L 10.703125 -11.25 L 4.421875 -11.25 L 4.421875 -8.09375 L 9.921875 -8.09375 L 9.921875 -5.921875 Z M 4.421875 -5.921875 "/></g></g></g><g fill="#000000" fill-opacity="1"><g transform="translate(298.75687, 236.082357)"><g><path d="M 4.71875 0.1875 C 3.570312 0.1875 2.617188 -0.0234375 1.859375 -0.453125 C 1.109375 -0.890625 0.5625 -1.472656 0.21875 -2.203125 L 1.71875 -4.03125 L 1.953125 -4.03125 C 2.203125 -3.4375 2.550781 -2.96875 3 -2.625 C 3.457031 -2.289062 3.984375 -2.125 4.578125 -2.125 C 5.242188 -2.125 5.738281 -2.316406 6.0625 -2.703125 C 6.394531 -3.097656 6.5625 -3.734375 6.5625 -4.609375 L 6.5625 -13.484375 L 9.21875 -13.484375 L 9.21875 -4.5625 C 9.21875 -2.9375 8.84375 -1.738281 8.09375 -0.96875 C 7.351562 -0.195312 6.226562 0.1875 4.71875 0.1875 Z M 4.71875 0.1875 "/></g></g></g><g fill="#000000" fill-opacity="1"><g transform="translate(96.306008, 270.384178)"><g><path d="M 3.4375 -12.046875 L 6.875 -12.046875 L 6.875 -10.3125 L 5.15625 -10.3125 L 5.15625 -8.59375 L 6.875 -8.59375 L 6.875 -6.875 L 5.15625 -6.875 L 5.15625 0 L 3.4375 0 L 3.4375 -6.875 L 1.71875 -6.875 L 1.71875 -8.59375 L 3.4375 -8.59375 Z M 3.4375 -12.046875 "/></g></g></g><g fill="#000000" fill-opacity="1"><g transform="translate(103.18807, 270.384178)"><g><path d="M 1.71875 -8.59375 L 3.4375 -8.59375 L 3.4375 -6.40625 L 5.640625 -8.59375 L 8.59375 -8.59375 L 8.59375 -6.875 L 6.40625 -6.875 L 3.4375 -3.921875 L 3.4375 0 L 1.71875 0 Z M 1.71875 -8.59375 "/></g></g></g><g fill="#000000" fill-opacity="1"><g transform="translate(111.79064, 270.384178)"><g><path d="M 1.71875 -8.59375 L 10.3125 -8.59375 L 10.3125 0 L 1.71875 0 Z M 3.4375 -6.875 L 3.4375 -1.71875 L 8.59375 -1.71875 L 8.59375 -6.875 Z M 3.4375 -6.875 "/></g></g></g><g fill="#000000" fill-opacity="1"><g transform="translate(122.113727, 270.384178)"><g><path d="M 1.71875 -8.59375 L 8.125 -8.59375 L 10.3125 -6.40625 L 10.3125 0 L 8.59375 0 L 8.59375 -5.640625 L 7.359375 -6.875 L 3.4375 -6.875 L 3.4375 0 L 1.71875 0 Z M 1.71875 -8.59375 "/></g></g></g><g fill="#000000" fill-opacity="1"><g transform="translate(132.436813, 270.384178)"><g><path d="M 3.4375 -12.046875 L 5.15625 -12.046875 L 5.15625 -8.59375 L 8.59375 -8.59375 L 8.59375 -6.875 L 5.15625 -6.875 L 5.15625 -1.71875 L 8.59375 -1.71875 L 8.59375 0 L 3.4375 0 L 3.4375 -6.875 L 1.71875 -6.875 L 1.71875 -8.59375 L 3.4375 -8.59375 Z M 3.4375 -12.046875 "/></g></g></g><g fill="#000000" fill-opacity="1"><g transform="translate(141.039384, 270.384178)"><g><path d="M 1.71875 -6.875 L 10.3125 -6.875 L 10.3125 -5.15625 L 1.71875 -5.15625 Z M 1.71875 -6.875 "/></g></g></g><g fill="#000000" fill-opacity="1"><g transform="translate(151.36247, 270.384178)"><g><path d="M 1.71875 -8.59375 L 10.3125 -8.59375 L 10.3125 -3.4375 L 3.4375 -3.4375 L 3.4375 -1.71875 L 10.3125 -1.71875 L 10.3125 0 L 1.71875 0 Z M 3.4375 -6.875 L 3.4375 -5.15625 L 8.59375 -5.15625 L 8.59375 -6.875 Z M 3.4375 -6.875 "/></g></g></g><g fill="#000000" fill-opacity="1"><g transform="translate(161.685556, 270.384178)"><g><path d="M 1.71875 -8.59375 L 8.125 -8.59375 L 10.3125 -6.40625 L 10.3125 0 L 8.59375 0 L 8.59375 -5.640625 L 7.359375 -6.875 L 3.4375 -6.875 L 3.4375 0 L 1.71875 0 Z M 1.71875 -8.59375 "/></g></g></g><g fill="#000000" fill-opacity="1"><g transform="translate(172.008643, 270.384178)"><g><path d="M 8.59375 -12.046875 L 10.3125 -12.046875 L 10.3125 0 L 1.71875 0 L 1.71875 -8.59375 L 8.59375 -8.59375 Z M 3.4375 -6.875 L 3.4375 -1.71875 L 8.59375 -1.71875 L 8.59375 -6.875 Z M 3.4375 -6.875 "/></g></g></g><g fill="#000000" fill-opacity="1"><g transform="translate(182.331729, 270.384178)"><g/></g></g><g fill="#000000" fill-opacity="1"><g transform="translate(190.9343, 270.384178)"><g><path d="M 8.59375 -12.046875 L 10.3125 -12.046875 L 10.3125 0 L 1.71875 0 L 1.71875 -8.59375 L 8.59375 -8.59375 Z M 3.4375 -6.875 L 3.4375 -1.71875 L 8.59375 -1.71875 L 8.59375 -6.875 Z M 3.4375 -6.875 "/></g></g></g><g fill="#000000" fill-opacity="1"><g transform="translate(201.257381, 270.384178)"><g><path d="M 1.71875 -8.59375 L 10.3125 -8.59375 L 10.3125 -3.4375 L 3.4375 -3.4375 L 3.4375 -1.71875 L 10.3125 -1.71875 L 10.3125 0 L 1.71875 0 Z M 3.4375 -6.875 L 3.4375 -5.15625 L 8.59375 -5.15625 L 8.59375 -6.875 Z M 3.4375 -6.875 "/></g></g></g><g fill="#000000" fill-opacity="1"><g transform="translate(211.580462, 270.384178)"><g><path d="M 1.71875 -8.59375 L 3.4375 -8.59375 L 3.4375 -4.671875 L 6.015625 -2.09375 L 8.59375 -4.671875 L 8.59375 -8.59375 L 10.3125 -8.59375 L 10.3125 -3.921875 L 6.40625 0 L 5.640625 0 L 1.71875 -3.921875 Z M 1.71875 -8.59375 "/></g></g></g><g fill="#000000" fill-opacity="1"><g transform="translate(221.903543, 270.384178)"><g><path d="M 1.71875 -8.59375 L 10.3125 -8.59375 L 10.3125 -3.4375 L 3.4375 -3.4375 L 3.4375 -1.71875 L 10.3125 -1.71875 L 10.3125 0 L 1.71875 0 Z M 3.4375 -6.875 L 3.4375 -5.15625 L 8.59375 -5.15625 L 8.59375 -6.875 Z M 3.4375 -6.875 "/></g></g></g><g fill="#000000" fill-opacity="1"><g transform="translate(232.226623, 270.384178)"><g><path d="M 1.71875 -12.046875 L 5.15625 -12.046875 L 5.15625 -1.71875 L 6.875 -1.71875 L 6.875 0 L 3.4375 0 L 3.4375 -10.3125 L 1.71875 -10.3125 Z M 1.71875 -12.046875 "/></g></g></g><g fill="#000000" fill-opacity="1"><g transform="translate(239.108685, 270.384178)"><g><path d="M 1.71875 -8.59375 L 10.3125 -8.59375 L 10.3125 0 L 1.71875 0 Z M 3.4375 -6.875 L 3.4375 -1.71875 L 8.59375 -1.71875 L 8.59375 -6.875 Z M 3.4375 -6.875 "/></g></g></g><g fill="#000000" fill-opacity="1"><g transform="translate(249.431766, 270.384178)"><g><path d="M 1.71875 -8.59375 L 10.3125 -8.59375 L 10.3125 0 L 3.4375 0 L 3.4375 3.4375 L 1.71875 3.4375 Z M 3.4375 -6.875 L 3.4375 -1.71875 L 8.59375 -1.71875 L 8.59375 -6.875 Z M 3.4375 -6.875 "/></g></g></g><g fill="#000000" fill-opacity="1"><g transform="translate(259.754846, 270.384178)"><g><path d="M 1.71875 -8.59375 L 10.3125 -8.59375 L 10.3125 -3.4375 L 3.4375 -3.4375 L 3.4375 -1.71875 L 10.3125 -1.71875 L 10.3125 0 L 1.71875 0 Z M 3.4375 -6.875 L 3.4375 -5.15625 L 8.59375 -5.15625 L 8.59375 -6.875 Z M 3.4375 -6.875 "/></g></g></g><g fill="#000000" fill-opacity="1"><g transform="translate(270.077927, 270.384178)"><g><path d="M 1.71875 -8.59375 L 3.4375 -8.59375 L 3.4375 -6.40625 L 5.640625 -8.59375 L 8.59375 -8.59375 L 8.59375 -6.875 L 6.40625 -6.875 L 3.4375 -3.921875 L 3.4375 0 L 1.71875 0 Z M 1.71875 -8.59375 "/></g></g></g><g fill="#000000" fill-opacity="1"><g transform="translate(106.631906, 295.075144)"><g><path d="M 1.71875 -8.59375 L 10.3125 -8.59375 L 10.3125 -6.875 L 3.4375 -6.875 L 3.4375 -5.15625 L 10.3125 -5.15625 L 10.3125 0 L 1.71875 0 L 1.71875 -1.71875 L 8.59375 -1.71875 L 8.59375 -3.4375 L 1.71875 -3.4375 Z M 1.71875 -8.59375 "/></g></g></g><g fill="#000000" fill-opacity="1"><g transform="translate(116.954992, 295.075144)"><g><path d="M 1.71875 -8.59375 L 10.3125 -8.59375 L 10.3125 0 L 1.71875 0 Z M 3.4375 -6.875 L 3.4375 -1.71875 L 8.59375 -1.71875 L 8.59375 -6.875 Z M 3.4375 -6.875 "/></g></g></g><g fill="#000000" fill-opacity="1"><g transform="translate(127.278078, 295.075144)"><g><path d="M 3.4375 -12.046875 L 6.875 -12.046875 L 6.875 -10.3125 L 5.15625 -10.3125 L 5.15625 -8.59375 L 6.875 -8.59375 L 6.875 -6.875 L 5.15625 -6.875 L 5.15625 0 L 3.4375 0 L 3.4375 -6.875 L 1.71875 -6.875 L 1.71875 -8.59375 L 3.4375 -8.59375 Z M 3.4375 -12.046875 "/></g></g></g><g fill="#000000" fill-opacity="1"><g transform="translate(134.16014, 295.075144)"><g><path d="M 3.4375 -12.046875 L 5.15625 -12.046875 L 5.15625 -8.59375 L 8.59375 -8.59375 L 8.59375 -6.875 L 5.15625 -6.875 L 5.15625 -1.71875 L 8.59375 -1.71875 L 8.59375 0 L 3.4375 0 L 3.4375 -6.875 L 1.71875 -6.875 L 1.71875 -8.59375 L 3.4375 -8.59375 Z M 3.4375 -12.046875 "/></g></g></g><g fill="#000000" fill-opacity="1"><g transform="translate(142.76271, 295.075144)"><g><path d="M 1.71875 -8.59375 L 3.4375 -8.59375 L 3.4375 -2.953125 L 4.671875 -1.71875 L 5.15625 -2.203125 L 5.15625 -8.59375 L 6.875 -8.59375 L 6.875 -2.203125 L 7.359375 -1.71875 L 8.59375 -2.953125 L 8.59375 -8.59375 L 10.3125 -8.59375 L 10.3125 -2.203125 L 8.125 0 L 6.40625 0 L 6.015625 -0.375 L 5.640625 0 L 3.921875 0 L 1.71875 -2.203125 Z M 1.71875 -8.59375 "/></g></g></g><g fill="#000000" fill-opacity="1"><g transform="translate(153.085797, 295.075144)"><g><path d="M 3.4375 -3.4375 L 3.4375 -1.71875 L 8.59375 -1.71875 L 8.59375 -3.4375 Z M 1.71875 -8.59375 L 10.3125 -8.59375 L 10.3125 0 L 1.71875 0 L 1.71875 -5.15625 L 8.59375 -5.15625 L 8.59375 -6.875 L 1.71875 -6.875 Z M 1.71875 -8.59375 "/></g></g></g><g fill="#000000" fill-opacity="1"><g transform="translate(163.408883, 295.075144)"><g><path d="M 1.71875 -8.59375 L 3.4375 -8.59375 L 3.4375 -6.40625 L 5.640625 -8.59375 L 8.59375 -8.59375 L 8.59375 -6.875 L 6.40625 -6.875 L 3.4375 -3.921875 L 3.4375 0 L 1.71875 0 Z M 1.71875 -8.59375 "/></g></g></g><g fill="#000000" fill-opacity="1"><g transform="translate(172.011454, 295.075144)"><g><path d="M 1.71875 -8.59375 L 10.3125 -8.59375 L 10.3125 -3.4375 L 3.4375 -3.4375 L 3.4375 -1.71875 L 10.3125 -1.71875 L 10.3125 0 L 1.71875 0 Z M 3.4375 -6.875 L 3.4375 -5.15625 L 8.59375 -5.15625 L 8.59375 -6.875 Z M 3.4375 -6.875 "/></g></g></g><g fill="#000000" fill-opacity="1"><g transform="translate(182.33454, 295.075144)"><g/></g></g><g fill="#000000" fill-opacity="1"><g transform="translate(190.937111, 295.075144)"><g><path d="M 1.71875 -8.59375 L 10.3125 -8.59375 L 10.3125 -3.4375 L 3.4375 -3.4375 L 3.4375 -1.71875 L 10.3125 -1.71875 L 10.3125 0 L 1.71875 0 Z M 3.4375 -6.875 L 3.4375 -5.15625 L 8.59375 -5.15625 L 8.59375 -6.875 Z M 3.4375 -6.875 "/></g></g></g><g fill="#000000" fill-opacity="1"><g transform="translate(201.260197, 295.075144)"><g><path d="M 1.71875 -8.59375 L 8.125 -8.59375 L 10.3125 -6.40625 L 10.3125 0 L 8.59375 0 L 8.59375 -5.640625 L 7.359375 -6.875 L 3.4375 -6.875 L 3.4375 0 L 1.71875 0 Z M 1.71875 -8.59375 "/></g></g></g><g fill="#000000" fill-opacity="1"><g transform="translate(211.583278, 295.075144)"><g><path d="M 1.71875 -8.59375 L 10.3125 -8.59375 L 10.3125 3.4375 L 1.71875 3.4375 L 1.71875 1.71875 L 8.59375 1.71875 L 8.59375 0 L 1.71875 0 Z M 3.4375 -6.875 L 3.4375 -1.71875 L 8.59375 -1.71875 L 8.59375 -6.875 Z M 3.4375 -6.875 "/></g></g></g><g fill="#000000" fill-opacity="1"><g transform="translate(221.906359, 295.075144)"><g><path d="M 1.71875 -8.59375 L 5.15625 -8.59375 L 5.15625 -1.71875 L 6.875 -1.71875 L 6.875 0 L 3.4375 0 L 3.4375 -6.875 L 1.71875 -6.875 Z M 3.4375 -12.046875 L 5.15625 -12.046875 L 5.15625 -10.3125 L 3.4375 -10.3125 Z M 3.4375 -12.046875 "/></g></g></g><g fill="#000000" fill-opacity="1"><g transform="translate(228.78842, 295.075144)"><g><path d="M 1.71875 -8.59375 L 8.125 -8.59375 L 10.3125 -6.40625 L 10.3125 0 L 8.59375 0 L 8.59375 -5.640625 L 7.359375 -6.875 L 3.4375 -6.875 L 3.4375 0 L 1.71875 0 Z M 1.71875 -8.59375 "/></g></g></g><g fill="#000000" fill-opacity="1"><g transform="translate(239.111501, 295.075144)"><g><path d="M 1.71875 -8.59375 L 10.3125 -8.59375 L 10.3125 -3.4375 L 3.4375 -3.4375 L 3.4375 -1.71875 L 10.3125 -1.71875 L 10.3125 0 L 1.71875 0 Z M 3.4375 -6.875 L 3.4375 -5.15625 L 8.59375 -5.15625 L 8.59375 -6.875 Z M 3.4375 -6.875 "/></g></g></g><g fill="#000000" fill-opacity="1"><g transform="translate(249.434582, 295.075144)"><g><path d="M 1.71875 -8.59375 L 10.3125 -8.59375 L 10.3125 -3.4375 L 3.4375 -3.4375 L 3.4375 -1.71875 L 10.3125 -1.71875 L 10.3125 0 L 1.71875 0 Z M 3.4375 -6.875 L 3.4375 -5.15625 L 8.59375 -5.15625 L 8.59375 -6.875 Z M 3.4375 -6.875 "/></g></g></g><g fill="#000000" fill-opacity="1"><g transform="translate(259.757663, 295.075144)"><g><path d="M 1.71875 -8.59375 L 3.4375 -8.59375 L 3.4375 -6.40625 L 5.640625 -8.59375 L 8.59375 -8.59375 L 8.59375 -6.875 L 6.40625 -6.875 L 3.4375 -3.921875 L 3.4375 0 L 1.71875 0 Z M 1.71875 -8.59375 "/></g></g></g></svg>