<svg height="1439.857" viewBox="0 0 1318.585 1439.857" width="1318.585" xmlns="http://www.w3.org/2000/svg"><path d="m154.771 650.087h1009.112v722.27c0 33.115-26.885 60-60 60h-889.112c-33.115 0-60-26.885-60-60z" fill="#fff"/><g fill="#1e284c"><path d="m1103.883 1439.857h-889.112c-37.22 0-67.5-30.281-67.5-67.5v-722.27c0-4.142 3.358-7.5 7.5-7.5h1009.112c4.142 0 7.5 3.358 7.5 7.5v722.27c0 37.219-30.28 67.5-67.5 67.5zm-941.612-782.27v714.77c0 28.948 23.551 52.5 52.5 52.5h889.112c28.949 0 52.5-23.552 52.5-52.5v-714.77z"/><path d="m328.794 868.861h-93.406c-4.142 0-7.5-3.358-7.5-7.5v-93.406c0-4.142 3.358-7.5 7.5-7.5h93.406c4.142 0 7.5 3.358 7.5 7.5v93.406c0 4.142-3.358 7.5-7.5 7.5zm-85.906-15h78.406v-78.406h-78.406z"/><path d="m422.2 868.861h-93.405c-4.142 0-7.5-3.358-7.5-7.5v-93.406c0-4.142 3.358-7.5 7.5-7.5h93.405c4.142 0 7.5 3.358 7.5 7.5v93.406c0 4.142-3.358 7.5-7.5 7.5zm-85.905-15h78.405v-78.406h-78.405z"/><path d="m515.605 868.861h-93.406c-4.142 0-7.5-3.358-7.5-7.5v-93.406c0-4.142 3.358-7.5 7.5-7.5h93.406c4.142 0 7.5 3.358 7.5 7.5v93.406c0 4.142-3.358 7.5-7.5 7.5zm-85.906-15h78.406v-78.406h-78.406z"/><path d="m609.01 868.861h-93.405c-4.142 0-7.5-3.358-7.5-7.5v-93.406c0-4.142 3.358-7.5 7.5-7.5h93.405c4.142 0 7.5 3.358 7.5 7.5v93.406c0 4.142-3.358 7.5-7.5 7.5zm-85.905-15h78.405v-78.406h-78.405z"/><path d="m702.416 868.861h-93.406c-4.142 0-7.5-3.358-7.5-7.5v-93.406c0-4.142 3.358-7.5 7.5-7.5h93.406c4.142 0 7.5 3.358 7.5 7.5v93.406c0 4.142-3.358 7.5-7.5 7.5zm-85.906-15h78.406v-78.406h-78.406z"/><path d="m795.821 868.861h-93.405c-4.142 0-7.5-3.358-7.5-7.5v-93.406c0-4.142 3.358-7.5 7.5-7.5h93.405c4.142 0 7.5 3.358 7.5 7.5v93.406c0 4.142-3.358 7.5-7.5 7.5zm-85.905-15h78.405v-78.406h-78.405z"/><path d="m889.227 868.861h-93.406c-4.142 0-7.5-3.358-7.5-7.5v-93.406c0-4.142 3.358-7.5 7.5-7.5h93.406c4.142 0 7.5 3.358 7.5 7.5v93.406c0 4.142-3.358 7.5-7.5 7.5zm-85.906-15h78.406v-78.406h-78.406z"/><path d="m982.632 868.861h-93.406c-4.142 0-7.5-3.358-7.5-7.5v-93.406c0-4.142 3.358-7.5 7.5-7.5h93.406c4.142 0 7.5 3.358 7.5 7.5v93.406c0 4.142-3.358 7.5-7.5 7.5zm-85.906-15h78.406v-78.406h-78.406z"/><path d="m1076.037 868.861h-93.405c-4.142 0-7.5-3.358-7.5-7.5v-93.406c0-4.142 3.358-7.5 7.5-7.5h93.405c4.142 0 7.5 3.358 7.5 7.5v93.406c0 4.142-3.358 7.5-7.5 7.5zm-85.905-15h78.405v-78.406h-78.405z"/><path d="m328.794 962.266h-93.406c-4.142 0-7.5-3.358-7.5-7.5v-93.406c0-4.142 3.358-7.5 7.5-7.5h93.406c4.142 0 7.5 3.358 7.5 7.5v93.406c0 4.142-3.358 7.5-7.5 7.5zm-85.906-15h78.406v-78.406h-78.406z"/><path d="m422.2 962.266h-93.405c-4.142 0-7.5-3.358-7.5-7.5v-93.406c0-4.142 3.358-7.5 7.5-7.5h93.405c4.142 0 7.5 3.358 7.5 7.5v93.406c0 4.142-3.358 7.5-7.5 7.5zm-85.905-15h78.405v-78.406h-78.405z"/><path d="m515.605 962.266h-93.406c-4.142 0-7.5-3.358-7.5-7.5v-93.406c0-4.142 3.358-7.5 7.5-7.5h93.406c4.142 0 7.5 3.358 7.5 7.5v93.406c0 4.142-3.358 7.5-7.5 7.5zm-85.906-15h78.406v-78.406h-78.406z"/><path d="m609.01 962.266h-93.405c-4.142 0-7.5-3.358-7.5-7.5v-93.406c0-4.142 3.358-7.5 7.5-7.5h93.405c4.142 0 7.5 3.358 7.5 7.5v93.406c0 4.142-3.358 7.5-7.5 7.5zm-85.905-15h78.405v-78.406h-78.405z"/><path d="m702.416 962.266h-93.406c-4.142 0-7.5-3.358-7.5-7.5v-93.406c0-4.142 3.358-7.5 7.5-7.5h93.406c4.142 0 7.5 3.358 7.5 7.5v93.406c0 4.142-3.358 7.5-7.5 7.5zm-85.906-15h78.406v-78.406h-78.406z"/><path d="m795.821 962.266h-93.405c-4.142 0-7.5-3.358-7.5-7.5v-93.406c0-4.142 3.358-7.5 7.5-7.5h93.405c4.142 0 7.5 3.358 7.5 7.5v93.406c0 4.142-3.358 7.5-7.5 7.5zm-85.905-15h78.405v-78.406h-78.405z"/><path d="m889.227 962.266h-93.406c-4.142 0-7.5-3.358-7.5-7.5v-93.406c0-4.142 3.358-7.5 7.5-7.5h93.406c4.142 0 7.5 3.358 7.5 7.5v93.406c0 4.142-3.358 7.5-7.5 7.5zm-85.906-15h78.406v-78.406h-78.406z"/><path d="m1076.037 962.266h-186.811c-4.142 0-7.5-3.358-7.5-7.5v-93.405c0-4.142 3.358-7.5 7.5-7.5h186.811c4.142 0 7.5 3.358 7.5 7.5v93.405c0 4.142-3.358 7.5-7.5 7.5zm-179.311-15h171.811v-78.405h-171.811z"/><path d="m328.794 1055.672h-93.406c-4.142 0-7.5-3.358-7.5-7.5v-93.405c0-4.142 3.358-7.5 7.5-7.5h93.406c4.142 0 7.5 3.358 7.5 7.5v93.405c0 4.142-3.358 7.5-7.5 7.5zm-85.906-15h78.406v-78.405h-78.406z"/><path d="m422.2 1055.672h-93.405c-4.142 0-7.5-3.358-7.5-7.5v-93.405c0-4.142 3.358-7.5 7.5-7.5h93.405c4.142 0 7.5 3.358 7.5 7.5v93.405c0 4.142-3.358 7.5-7.5 7.5zm-85.905-15h78.405v-78.405h-78.405z"/><path d="m515.605 1055.672h-93.406c-4.142 0-7.5-3.358-7.5-7.5v-93.405c0-4.142 3.358-7.5 7.5-7.5h93.406c4.142 0 7.5 3.358 7.5 7.5v93.405c0 4.142-3.358 7.5-7.5 7.5zm-85.906-15h78.406v-78.405h-78.406z"/><path d="m795.821 1055.672h-280.216c-4.142 0-7.5-3.358-7.5-7.5v-93.406c0-4.142 3.358-7.5 7.5-7.5h280.216c4.142 0 7.5 3.358 7.5 7.5v93.406c0 4.142-3.358 7.5-7.5 7.5zm-272.716-15h265.216v-78.406h-265.216z"/><path d="m889.227 1055.672h-93.406c-4.142 0-7.5-3.358-7.5-7.5v-93.405c0-4.142 3.358-7.5 7.5-7.5h93.406c4.142 0 7.5 3.358 7.5 7.5v93.405c0 4.142-3.358 7.5-7.5 7.5zm-85.906-15h78.406v-78.405h-78.406z"/><path d="m982.632 1055.672h-93.406c-4.142 0-7.5-3.358-7.5-7.5v-93.405c0-4.142 3.358-7.5 7.5-7.5h93.406c4.142 0 7.5 3.358 7.5 7.5v93.405c0 4.142-3.358 7.5-7.5 7.5zm-85.906-15h78.406v-78.405h-78.406z"/><path d="m1076.037 1055.672h-93.405c-4.142 0-7.5-3.358-7.5-7.5v-93.405c0-4.142 3.358-7.5 7.5-7.5h93.405c4.142 0 7.5 3.358 7.5 7.5v93.405c0 4.142-3.358 7.5-7.5 7.5zm-85.905-15h78.405v-78.405h-78.405z"/><circle cx="1029.335" cy="709.021" r="24.88"/><path d="m823.644 1383.146h-335.861c-20.677 0-37.5-16.823-37.5-37.5v-210.208c0-20.677 16.823-37.5 37.5-37.5h335.861c20.677 0 37.5 16.823 37.5 37.5v210.208c0 20.677-16.823 37.5-37.5 37.5zm-335.861-270.208c-12.406 0-22.5 10.094-22.5 22.5v210.208c0 12.406 10.094 22.5 22.5 22.5h335.861c12.406 0 22.5-10.094 22.5-22.5v-210.208c0-12.406-10.094-22.5-22.5-22.5z"/><path d="m1163.883 650.087h-1009.706l-144.786-567.761c-9.674-37.937 18.989-74.826 58.14-74.826h1183.524c39.173 0 67.839 36.927 58.126 74.877z"/><path d="m1163.883 657.587h-1009.706c-3.428 0-6.42-2.325-7.267-5.647l-144.786-567.76c-5.188-20.342-.775-41.517 12.105-58.094 12.881-16.578 32.308-26.086 53.302-26.086h1183.524c21.005 0 40.439 9.516 53.32 26.108s17.281 37.779 12.073 58.128l-145.298 567.71c-.85 3.319-3.84 5.64-7.266 5.64zm-1003.879-15h998.056l143.854-562.069c4.051-15.827.628-32.306-9.39-45.211s-25.134-20.307-41.471-20.307h-1183.522c-16.328 0-31.439 7.395-41.457 20.288s-13.45 29.363-9.415 45.185l143.346 562.114z"/></g><path d="m1205.668 84.654c2.988-13.871 17.075-25.227 31.433-25.227s23.321 11.356 20.052 25.227c-3.234 13.721-17.243 24.736-31.322 24.736s-23.119-11.015-20.163-24.736z" fill="#fff"/><path d="m1114.886 84.654c2.493-13.871 16.173-25.227 30.532-25.227s23.727 11.356 20.953 25.227c-2.744 13.721-16.36 24.736-30.438 24.736s-23.512-11.015-21.046-24.736z" fill="#fff"/><path d="m1024.104 84.654c1.997-13.871 15.272-25.227 29.631-25.227s24.133 11.356 21.854 25.227c-2.254 13.721-15.476 24.736-29.555 24.736s-23.906-11.015-21.93-24.736z" fill="#fff"/><path d="m1149.868 464.144h-427.287c-2.028 0-3.969-.821-5.382-2.276-1.412-1.455-2.175-3.42-2.115-5.447l8.888-299.147c.12-4.054 3.441-7.277 7.497-7.277h486.202c2.281 0 4.437 1.038 5.86 2.819 1.423 1.782 1.958 4.114 1.454 6.339l-67.804 299.147c-.774 3.417-3.811 5.842-7.314 5.842zm-419.561-15h413.57l64.404-284.147h-469.531z" fill="#95ff80"/><path d="m1149.861 464.145c-1.51 0-3.034-.454-4.356-1.399l-418.398-299.147c-3.369-2.409-4.148-7.094-1.739-10.463 2.409-3.37 7.094-4.148 10.463-1.739l418.398 299.147c3.37 2.409 4.148 7.094 1.739 10.463-1.464 2.048-3.769 3.138-6.107 3.138z" fill="#95ff80"/><path d="m722.588 464.145c-2.54 0-5.017-1.29-6.426-3.623-2.142-3.545-1.005-8.156 2.541-10.298l495.09-299.147c3.545-2.142 8.156-1.005 10.298 2.541s1.005 8.156-2.541 10.298l-495.09 299.147c-1.213.733-2.551 1.082-3.872 1.082z" fill="#95ff80"/><path d="m94.099 172.146c-2.972-12.93 5.831-23.512 19.691-23.512 13.859 0 27.312 10.582 30.022 23.512 2.681 12.795-6.189 23.07-19.788 23.07s-26.984-10.275-29.925-23.07z" fill="#fff"/><path d="m608.685 179.646h-227.941c-4.142 0-7.5-3.358-7.5-7.5s3.358-7.5 7.5-7.5h227.941c4.142 0 7.5 3.358 7.5 7.5s-3.358 7.5-7.5 7.5z" fill="#95ff80"/><path d="m333.242 179.646h-125.571c-4.142 0-7.5-3.358-7.5-7.5s3.358-7.5 7.5-7.5h125.571c4.142 0 7.5 3.358 7.5 7.5s-3.358 7.5-7.5 7.5z" fill="#fff"/><path d="m644.397 242.362h-194.792c-4.142 0-7.5-3.358-7.5-7.5s3.358-7.5 7.5-7.5h194.792c4.142 0 7.5 3.358 7.5 7.5s-3.358 7.5-7.5 7.5z" fill="#dea2ff"/><path d="m402.103 242.362h-182.921c-4.142 0-7.5-3.358-7.5-7.5s3.358-7.5 7.5-7.5h182.921c4.142 0 7.5 3.358 7.5 7.5s-3.358 7.5-7.5 7.5z" fill="#dea2ff"/><path d="m519.175 301.953h-174.221c-4.142 0-7.5-3.358-7.5-7.5s3.358-7.5 7.5-7.5h174.221c4.142 0 7.5 3.358 7.5 7.5s-3.358 7.5-7.5 7.5z" fill="#95ff80"/><path d="m297.452 301.953h-67.332c-4.142 0-7.5-3.358-7.5-7.5s3.358-7.5 7.5-7.5h67.332c4.142 0 7.5 3.358 7.5 7.5s-3.358 7.5-7.5 7.5z" fill="#fff"/><path d="m135.238 351.145c-2.553-11.108 5.767-20.193 18.607-20.193s25.152 9.085 27.48 20.193c2.305 11.001-6.069 19.841-18.684 19.841s-24.874-8.84-27.402-19.841z" fill="#95ff80"/><path d="m645.064 358.645h-75.366c-4.142 0-7.5-3.358-7.5-7.5s3.358-7.5 7.5-7.5h75.366c4.142 0 7.5 3.358 7.5 7.5s-3.358 7.5-7.5 7.5z" fill="#fff"/><path d="m522.196 358.645h-114.846c-4.142 0-7.5-3.358-7.5-7.5s3.358-7.5 7.5-7.5h114.846c4.142 0 7.5 3.358 7.5 7.5s-3.358 7.5-7.5 7.5z" fill="#dea2ff"/><path d="m359.849 358.645h-119.322c-4.142 0-7.5-3.358-7.5-7.5s3.358-7.5 7.5-7.5h119.322c4.142 0 7.5 3.358 7.5 7.5s-3.358 7.5-7.5 7.5z" fill="#fff"/><path d="m645.374 412.647h-54.572c-4.142 0-7.5-3.358-7.5-7.5s3.358-7.5 7.5-7.5h54.572c4.142 0 7.5 3.358 7.5 7.5s-3.358 7.5-7.5 7.5z" fill="#95ff80"/><path d="m543.3 412.647h-203.397c-4.142 0-7.5-3.358-7.5-7.5s3.358-7.5 7.5-7.5h203.397c4.142 0 7.5 3.358 7.5 7.5s-3.358 7.5-7.5 7.5z" fill="#fff"/><path d="m292.401 412.647h-41.963c-4.142 0-7.5-3.358-7.5-7.5s3.358-7.5 7.5-7.5h41.963c4.142 0 7.5 3.358 7.5 7.5s-3.358 7.5-7.5 7.5z" fill="#dea2ff"/><path d="m159.485 456.644c-2.321-10.1 5.703-18.356 17.942-18.356s23.891 8.257 26.008 18.356c2.097 10.006-5.974 18.051-18.009 18.051s-23.641-8.044-25.94-18.051z" fill="#dea2ff"/><path d="m645.669 464.144h-93.945c-4.142 0-7.5-3.358-7.5-7.5s3.358-7.5 7.5-7.5h93.945c4.142 0 7.5 3.358 7.5 7.5s-3.358 7.5-7.5 7.5z" fill="#fff"/><path d="m504.222 464.144h-244.332c-4.142 0-7.5-3.358-7.5-7.5s3.358-7.5 7.5-7.5h244.332c4.142 0 7.5 3.358 7.5 7.5s-3.358 7.5-7.5 7.5z" fill="#95ff80"/><path d="m567.051 513.307h-188.069c-4.142 0-7.5-3.358-7.5-7.5s3.358-7.5 7.5-7.5h188.069c4.142 0 7.5 3.358 7.5 7.5s-3.358 7.5-7.5 7.5z" fill="#dea2ff"/><path d="m331.48 513.307h-62.565c-4.142 0-7.5-3.358-7.5-7.5s3.358-7.5 7.5-7.5h62.565c4.142 0 7.5 3.358 7.5 7.5s-3.358 7.5-7.5 7.5z" fill="#fff"/><path d="m646.221 560.292h-145.939c-4.142 0-7.5-3.358-7.5-7.5s3.358-7.5 7.5-7.5h145.939c4.142 0 7.5 3.358 7.5 7.5s-3.358 7.5-7.5 7.5z" fill="#dea2ff"/><path d="m452.78 560.292h-175.241c-4.142 0-7.5-3.358-7.5-7.5s3.358-7.5 7.5-7.5h175.241c4.142 0 7.5 3.358 7.5 7.5s-3.358 7.5-7.5 7.5z" fill="#95ff80"/><path d="m574.539 605.239h-288.751c-4.142 0-7.5-3.358-7.5-7.5s3.358-7.5 7.5-7.5h288.751c4.142 0 7.5 3.358 7.5 7.5s-3.358 7.5-7.5 7.5z" fill="#fff"/><path d="m1024.778 513.307h-303.658c-4.142 0-7.5-3.358-7.5-7.5s3.358-7.5 7.5-7.5h303.658c4.142 0 7.5 3.358 7.5 7.5s-3.358 7.5-7.5 7.5z" fill="#fff"/><path d="m1128.075 560.292h-169.05c-4.142 0-7.5-3.358-7.5-7.5s3.358-7.5 7.5-7.5h169.05c4.142 0 7.5 3.358 7.5 7.5s-3.358 7.5-7.5 7.5z" fill="#fff"/><path d="m901.149 560.292h-181.425c-4.142 0-7.5-3.358-7.5-7.5s3.358-7.5 7.5-7.5h181.425c4.142 0 7.5 3.358 7.5 7.5s-3.358 7.5-7.5 7.5z" fill="#fff"/><path d="m816.266 605.239h-97.877c-4.142 0-7.5-3.358-7.5-7.5s3.358-7.5 7.5-7.5h97.877c4.142 0 7.5 3.358 7.5 7.5s-3.358 7.5-7.5 7.5z" fill="#fff"/><path d="m970.765 605.239h-97.877c-4.142 0-7.5-3.358-7.5-7.5s3.358-7.5 7.5-7.5h97.877c4.142 0 7.5 3.358 7.5 7.5s-3.358 7.5-7.5 7.5z" fill="#fff"/><path d="m1079.935 605.239h-52.548c-4.142 0-7.5-3.358-7.5-7.5s3.358-7.5 7.5-7.5h52.548c4.142 0 7.5 3.358 7.5 7.5s-3.358 7.5-7.5 7.5z" fill="#fff"/></svg>